<svg version="1.1" id="Layer_1" xmlns="http://www.w3.org/2000/svg" xmlns:xlink="http://www.w3.org/1999/xlink" x="0px" y="0px"
	 width="100%" viewBox="0 0 128 128" enable-background="new 0 0 128 128" xml:space="preserve">
<path fill="#755A4B" opacity="1.000000" stroke="none" 
	d="
M55.000000,129.000000 
	C51.307091,129.000000 47.614182,129.000000 43.529510,128.649307 
	C44.688896,123.637505 41.214245,121.318886 38.665897,118.511131 
	C37.810829,117.569016 37.308762,116.306519 36.961433,115.383163 
	C40.115791,116.584877 42.954056,117.593895 46.367958,118.807556 
	C44.154629,115.102951 42.262260,111.935562 40.520950,108.376419 
	C41.115452,106.988350 41.558899,105.992035 42.310452,105.149628 
	C44.875011,107.780510 47.131466,110.257477 49.965282,113.368240 
	C53.784492,107.023819 53.868835,100.360054 54.996017,93.535690 
	C55.579281,87.425446 54.719006,82.045135 52.354050,76.992340 
	C53.131119,76.964005 53.575279,76.948418 54.249210,77.196487 
	C59.858028,83.384254 60.721115,90.394157 59.490238,97.950539 
	C59.217667,99.623856 59.265514,101.349358 59.091408,103.297821 
	C58.958939,103.706688 58.900887,103.868568 58.567467,104.264816 
	C57.859341,106.664627 57.426586,108.830070 56.650215,111.174026 
	C55.871315,113.005066 55.131660,114.644600 55.060463,116.312660 
	C54.880257,120.534943 55.000252,124.770035 55.000000,129.000000 
z"/>
<path fill="#68564B" opacity="1.000000" stroke="none" 
	d="
M1.000000,3.000000 
	C0.390337,-0.028110 2.688735,1.035959 3.959227,1.032089 
	C19.993595,0.983247 36.028164,1.000000 52.405960,1.253002 
	C52.495579,2.010517 52.241913,2.515031 51.959389,3.181275 
	C52.282074,3.562000 52.633621,3.780994 53.172829,4.255856 
	C53.527988,5.117216 53.695484,5.722709 53.552204,6.299639 
	C52.830601,6.207498 52.419769,6.143921 51.878910,6.026124 
	C51.445377,5.968713 51.238926,6.120864 50.913219,6.618267 
	C50.130142,6.860229 49.563366,6.912281 48.904060,6.627036 
	C45.288399,2.109836 40.631897,4.232169 37.078533,5.262796 
	C32.982327,6.450871 27.735395,9.016942 26.236177,12.416833 
	C24.488657,16.379818 22.151180,18.739525 18.827274,20.720001 
	C17.909075,13.411379 8.994093,4.588292 1.000000,3.000000 
z"/>
<path fill="#785847" opacity="1.000000" stroke="none" 
	d="
M95.000000,129.000000 
	C88.978844,129.000000 82.957695,129.000000 76.468605,128.531357 
	C75.984909,121.314934 76.153214,114.558670 75.843193,107.824440 
	C75.748001,105.756691 76.512505,101.997856 71.758255,102.842773 
	C71.084572,102.487572 70.668839,102.233261 70.312531,101.852570 
	C70.438881,101.440063 70.354050,101.194733 70.052109,100.659584 
	C70.032288,99.884224 70.077827,99.439476 70.304382,98.854507 
	C70.710167,98.504768 70.905197,98.270477 71.349701,97.910690 
	C72.089821,97.205750 72.550728,96.601555 73.317322,95.900467 
	C74.747314,95.202820 75.871597,94.602066 76.996460,94.438065 
	C77.145660,97.176041 77.136627,99.500473 77.471214,101.774330 
	C78.676575,109.965988 80.640686,111.089600 87.996094,108.402603 
	C88.055115,109.665016 88.101288,110.505905 88.036392,111.652603 
	C87.302216,113.309494 86.679100,114.660576 85.765106,116.163361 
	C85.041519,116.725121 84.608810,117.135170 84.176094,117.545219 
	C84.298141,117.785057 84.420181,118.024895 84.542229,118.264732 
	C85.729919,117.934471 86.917618,117.604218 88.347252,117.226898 
	C88.589188,117.179848 89.002312,116.910942 89.307007,116.909813 
	C89.918449,116.659950 90.225189,116.411217 90.858063,116.127464 
	C93.173187,114.900993 95.162178,113.709541 97.608932,112.633484 
	C98.372200,112.824516 98.677704,112.900154 98.991982,112.987259 
	C99.000748,112.998726 99.023605,113.016273 98.936066,113.355186 
	C94.740356,118.085670 88.861870,122.032104 95.000000,129.000000 
z"/>
<path fill="#755F50" opacity="1.000000" stroke="none" 
	d="
M53.862980,6.328202 
	C53.695484,5.722709 53.527988,5.117216 53.031639,4.068329 
	C52.494446,3.387920 52.256268,3.186124 51.988251,3.019546 
	C52.241913,2.515031 52.495579,2.010517 52.874619,1.253002 
	C55.370556,1.000000 57.741116,1.000000 60.630035,1.350884 
	C63.974842,6.441607 66.809334,11.176667 69.624680,15.923086 
	C71.305443,18.756697 73.495827,21.432774 74.490425,24.493771 
	C75.886162,28.789347 78.272896,29.449276 81.991272,28.397282 
	C81.654282,30.859875 81.324196,32.926941 80.641464,35.016903 
	C77.858368,34.360119 75.427902,33.680435 72.764130,32.754990 
	C70.501884,30.908278 68.472961,29.307337 66.340500,27.694675 
	C66.236977,27.682955 66.231789,27.474649 66.278564,27.380821 
	C66.325348,27.286991 66.263298,27.054214 66.263298,27.054214 
	C66.263298,27.054214 65.985870,27.086254 65.740234,27.016466 
	C65.325737,26.924946 65.156891,26.903215 64.958328,26.529076 
	C62.604137,23.297190 60.688625,19.879526 57.827927,17.705725 
	C55.469299,15.913439 54.705097,14.609270 55.970226,12.087427 
	C57.273445,9.489642 56.747448,7.615514 53.784058,6.604092 
	C53.747406,6.505031 53.862980,6.328202 53.862980,6.328202 
z"/>
<path fill="#7D6756" opacity="1.000000" stroke="none" 
	d="
M81.998169,28.001755 
	C78.272896,29.449276 75.886162,28.789347 74.490425,24.493771 
	C73.495827,21.432774 71.305443,18.756697 69.624680,15.923086 
	C66.809334,11.176667 63.974842,6.441607 61.074203,1.350884 
	C63.370556,1.000000 65.741112,1.000000 68.582657,1.363416 
	C70.164963,6.347444 73.499710,7.870277 78.113968,8.205788 
	C79.912994,11.264170 81.418602,14.136037 82.649712,17.115337 
	C82.625237,18.126320 82.875259,19.029865 83.095535,19.951775 
	C83.065796,19.970137 83.064140,19.900248 83.040237,20.175312 
	C83.011368,20.633450 83.006409,20.816525 82.973434,21.391016 
	C82.629677,23.855539 82.313919,25.928648 81.998169,28.001755 
z"/>
<path fill="#866D5B" opacity="1.000000" stroke="none" 
	d="
M16.000000,129.000000 
	C12.637899,129.000000 9.275798,129.000000 5.528288,128.653366 
	C6.133224,126.853218 6.929153,125.204414 8.153276,123.985725 
	C10.938398,121.212959 13.932483,118.649971 16.844028,116.004356 
	C20.504414,112.678299 21.673595,109.094337 17.968338,104.634766 
	C17.628246,101.509880 17.312937,98.752892 17.267899,95.868393 
	C18.085615,95.501503 18.633062,95.262115 19.206242,95.433838 
	C18.526909,99.613640 19.863821,102.282097 23.144764,104.382652 
	C25.436991,105.850204 27.302914,107.983620 29.035149,109.912132 
	C28.134926,110.339020 27.558802,110.673393 26.836929,111.358734 
	C26.318270,117.739769 22.566402,121.694328 18.401669,125.465416 
	C17.375570,126.394524 16.788755,127.808777 16.000000,129.000000 
z"/>
<path fill="#6F5D53" opacity="1.000000" stroke="none" 
	d="
M1.000000,3.458069 
	C8.994093,4.588292 17.909075,13.411379 18.827122,20.972874 
	C19.025085,21.667562 19.024330,21.836069 18.870930,22.178566 
	C18.799900,22.902603 18.881516,23.452652 18.970463,24.383030 
	C18.989719,25.523937 19.001646,26.284517 18.920919,27.355610 
	C17.650564,28.823906 16.472862,29.981689 15.031124,30.859638 
	C14.304910,29.539135 13.506495,28.521235 13.434241,27.454165 
	C12.900914,19.577778 7.285772,16.499826 1.000000,14.000000 
	C1.000000,10.638713 1.000000,7.277425 1.000000,3.458069 
z"/>
<path fill="#C1AD8A" opacity="1.000000" stroke="none" 
	d="
M111.000000,1.000000 
	C113.041664,1.000000 115.083336,1.000000 117.570328,1.383321 
	C121.374283,8.384080 124.727348,15.004373 128.115417,21.606707 
	C128.230133,21.830250 128.697174,21.872986 129.000000,22.000000 
	C129.000000,28.687645 129.000000,35.375290 128.676880,42.397083 
	C127.521004,41.167141 126.529762,39.664776 125.891090,38.025082 
	C124.824432,35.286598 123.903145,32.483822 123.074799,29.662848 
	C122.509270,27.736917 121.950989,25.747770 121.843651,23.762333 
	C121.671570,20.579134 123.070946,17.016808 119.021172,14.797803 
	C118.604439,14.418559 118.323708,14.251826 117.943115,13.765451 
	C116.229507,12.296205 114.615768,11.146599 112.992470,9.606304 
	C112.321945,6.477076 111.660973,3.738538 111.000000,1.000000 
z"/>
<path fill="#A79374" opacity="1.000000" stroke="none" 
	d="
M1.000000,101.000000 
	C1.000000,86.979103 1.000000,72.958214 1.302073,58.587990 
	C2.421793,59.488663 3.239441,60.738670 4.047993,62.326736 
	C4.052886,63.115257 4.066875,63.565723 3.880121,64.291565 
	C4.788985,71.376900 5.898594,78.186867 7.093988,85.352692 
	C9.873783,91.586349 7.380467,97.755898 1.000000,101.000000 
z"/>
<path fill="#725144" opacity="1.000000" stroke="none" 
	d="
M72.016197,102.943649 
	C76.512505,101.997856 75.748001,105.756691 75.843193,107.824440 
	C76.153214,114.558670 75.984909,121.314934 76.000336,128.531357 
	C69.312355,129.000000 62.624710,129.000000 55.468533,129.000000 
	C55.000252,124.770035 54.880257,120.534943 55.060463,116.312660 
	C55.131660,114.644600 55.871315,113.005066 56.652981,111.628166 
	C57.610947,115.931450 58.222527,119.959114 59.026588,124.348557 
	C63.469105,124.769608 67.719139,124.828873 72.142151,124.934799 
	C72.280823,124.321800 72.246521,123.662140 72.147568,122.552780 
	C72.128876,119.078873 72.174835,116.054657 72.477066,112.916153 
	C72.562698,111.856903 72.392052,110.911949 72.152328,109.533356 
	C72.060898,107.047691 72.038544,104.995667 72.016197,102.943649 
z"/>
<path fill="#A18768" opacity="1.000000" stroke="none" 
	d="
M129.000000,98.000000 
	C129.000000,103.688042 129.000000,109.376083 128.662827,115.445618 
	C127.001938,114.046791 125.322762,112.428833 124.421394,110.455582 
	C121.755081,104.618523 118.562279,98.837296 120.079193,91.615051 
	C121.121887,87.155289 122.088516,83.072914 123.247589,78.737312 
	C123.967384,77.309013 124.494720,76.133942 125.209206,75.264610 
	C125.216858,80.840851 125.376846,86.152504 124.744469,91.368095 
	C124.284752,95.159637 125.626862,97.040955 129.000000,98.000000 
z"/>
<path fill="#7F614F" opacity="1.000000" stroke="none" 
	d="
M98.983215,112.975800 
	C98.677704,112.900154 98.372200,112.824516 97.803314,112.365875 
	C98.699623,110.984718 99.859306,109.986557 101.196762,108.876724 
	C101.598831,108.595329 101.801796,108.403084 102.302933,108.050858 
	C104.736755,106.240028 106.851067,104.566666 108.942894,103.260399 
	C108.392815,104.813446 108.147240,106.279114 107.292633,107.140709 
	C100.918297,113.567261 99.963646,120.137352 106.328354,127.148895 
	C106.736572,127.598610 106.784477,128.375381 107.000000,129.000000 
	C103.307091,129.000000 99.614182,129.000000 95.460632,129.000000 
	C88.861870,122.032104 94.740356,118.085670 98.991608,113.319427 
	C99.134689,112.944748 98.983215,112.975800 98.983215,112.975800 
z"/>
<path fill="#9A7F63" opacity="1.000000" stroke="none" 
	d="
M120.003113,91.992432 
	C118.562279,98.837296 121.755081,104.618523 124.421394,110.455582 
	C125.322762,112.428833 127.001938,114.046791 128.662827,115.913559 
	C129.000000,119.833336 129.076569,123.669975 128.911194,127.496162 
	C128.888367,128.023987 127.666656,128.499985 126.472046,128.631424 
	C125.444267,127.062912 124.813560,125.899635 124.465439,124.657173 
	C121.819031,115.212074 113.337250,107.075340 118.133438,95.691895 
	C118.845795,94.262955 119.424454,93.127693 120.003113,91.992432 
z"/>
<path fill="#7C5E50" opacity="1.000000" stroke="none" 
	d="
M26.982679,111.007774 
	C27.558802,110.673393 28.134926,110.339020 29.336788,110.027824 
	C31.728251,111.326790 33.493969,112.602570 35.112587,114.083115 
	C35.473351,114.566269 35.981216,114.844650 36.543320,115.104736 
	C36.597561,115.086441 36.645344,115.190468 36.645344,115.190468 
	C37.308762,116.306519 37.810829,117.569016 38.665897,118.511131 
	C41.214245,121.318886 44.688896,123.637505 43.068874,128.649307 
	C37.977909,129.000000 32.955814,129.000000 27.545538,128.665222 
	C29.146915,125.575829 31.136478,122.821205 33.056461,120.162918 
	C30.928814,116.955872 28.955748,113.981819 26.982679,111.007774 
z"/>
<path fill="#94795E" opacity="1.000000" stroke="none" 
	d="
M117.999741,95.985558 
	C113.337250,107.075340 121.819031,115.212074 124.465439,124.657173 
	C124.813560,125.899635 125.444267,127.062912 125.972046,128.631439 
	C124.611107,129.000000 123.222221,129.000000 121.334518,128.655411 
	C117.754829,120.687866 112.091377,113.935722 112.863937,104.664864 
	C111.755630,103.524368 110.751701,102.697258 109.817360,101.647972 
	C110.041145,101.130760 110.280190,100.944748 111.009850,100.867271 
	C114.967224,100.548180 115.216866,98.373703 114.364655,95.521431 
	C114.347610,95.453346 114.476318,95.397339 114.906189,95.529091 
	C116.223953,95.769081 117.111847,95.877319 117.999741,95.985558 
z"/>
<path fill="#A79071" opacity="1.000000" stroke="none" 
	d="
M129.000000,97.531342 
	C125.626862,97.040955 124.284752,95.159637 124.744469,91.368095 
	C125.376846,86.152504 125.216858,80.840851 125.289963,74.860199 
	C125.454048,68.101929 125.724518,62.053818 126.285583,56.135757 
	C127.384117,56.510540 128.192062,56.755272 129.000000,57.000000 
	C129.000000,70.354225 129.000000,83.708458 129.000000,97.531342 
z"/>
<path fill="#866A54" opacity="1.000000" stroke="none" 
	d="
M109.747780,101.870148 
	C110.751701,102.697258 111.755630,103.524368 112.525955,104.761688 
	C108.763176,108.212852 107.180435,112.189842 108.518875,116.542732 
	C109.843193,120.849731 112.133446,124.859726 114.000000,129.000000 
	C111.958336,129.000000 109.916664,129.000000 107.437500,129.000000 
	C106.784477,128.375381 106.736572,127.598610 106.328354,127.148895 
	C99.963646,120.137352 100.918297,113.567261 107.292633,107.140709 
	C108.147240,106.279114 108.392815,104.813446 108.979515,103.030014 
	C109.180618,102.126045 109.417007,101.938591 109.747780,101.870148 
z"/>
<path fill="#A18B6F" opacity="1.000000" stroke="none" 
	d="
M1.000000,101.444168 
	C7.380467,97.755898 9.873783,91.586349 7.429964,85.417992 
	C8.783170,85.419205 9.886186,85.710983 11.257818,86.165161 
	C12.683694,87.217812 13.840952,88.108078 14.971810,89.372787 
	C13.196522,93.960800 12.033520,98.575829 9.509957,102.258545 
	C7.555752,105.110390 3.899583,106.795975 1.000000,109.000000 
	C1.000000,106.629440 1.000000,104.258888 1.000000,101.444168 
z"/>
<path fill="#8F7158" opacity="1.000000" stroke="none" 
	d="
M114.437500,129.000000 
	C112.133446,124.859726 109.843193,120.849731 108.518875,116.542732 
	C107.180435,112.189842 108.763176,108.212852 112.630341,105.075073 
	C112.091377,113.935722 117.754829,120.687866 120.917854,128.655411 
	C118.958336,129.000000 116.916664,129.000000 114.437500,129.000000 
z"/>
<path fill="#9D8970" opacity="1.000000" stroke="none" 
	d="
M85.000000,1.000000 
	C88.030594,1.000000 91.061188,1.000000 94.619461,1.368307 
	C95.948280,8.323614 100.273674,11.778637 106.342926,14.110711 
	C109.115173,14.506830 111.564278,14.763329 113.729095,15.217216 
	C110.830368,17.110729 108.215927,18.806854 105.641624,20.476948 
	C102.059982,17.418686 98.486633,14.367507 94.771271,11.000677 
	C91.419502,7.456685 88.209755,4.228342 85.000000,1.000000 
z"/>
<path fill="#796558" opacity="1.000000" stroke="none" 
	d="
M1.000000,14.449980 
	C7.285772,16.499826 12.900914,19.577778 13.434241,27.454165 
	C13.506495,28.521235 14.304910,29.539135 14.963671,31.211720 
	C14.142646,33.911854 13.125038,35.980076 11.825967,38.036896 
	C11.356837,38.018509 11.169170,38.011513 10.983953,37.571732 
	C10.974507,29.460915 7.616343,24.706360 1.000000,23.000000 
	C1.000000,20.299986 1.000000,17.599972 1.000000,14.449980 
z"/>
<path fill="#8E7461" opacity="1.000000" stroke="none" 
	d="
M17.993122,105.002655 
	C21.673595,109.094337 20.504414,112.678299 16.844028,116.004356 
	C13.932483,118.649971 10.938398,121.212959 8.153276,123.985725 
	C6.929153,125.204414 6.133224,126.853218 5.071440,128.653366 
	C3.736694,129.000000 2.473389,129.000000 1.000000,129.000000 
	C1.000000,127.335152 1.000000,125.667046 1.333335,123.421700 
	C7.108820,116.897186 12.550972,110.949921 17.993122,105.002655 
z"/>
<path fill="#B8A382" opacity="1.000000" stroke="none" 
	d="
M119.157181,15.010315 
	C123.070946,17.016808 121.671570,20.579134 121.843651,23.762333 
	C121.950989,25.747770 122.509270,27.736917 123.074799,29.662848 
	C123.903145,32.483822 124.824432,35.286598 125.891090,38.025082 
	C126.529762,39.664776 127.521004,41.167141 128.676880,42.865616 
	C129.000000,45.370556 129.000000,47.741116 128.708389,50.471054 
	C127.617928,50.217529 126.819077,49.604622 126.007088,48.635590 
	C125.335342,47.181183 124.676735,46.082901 123.987274,44.617329 
	C119.592033,38.198410 119.196175,30.977022 118.047714,23.659245 
	C118.394569,22.221718 118.679947,21.120539 119.084808,19.750896 
	C119.062408,18.610449 118.920525,17.738468 118.825211,16.553932 
	C118.966919,15.831021 119.062050,15.420669 119.157181,15.010315 
z"/>
<path fill="#CAB891" opacity="1.000000" stroke="none" 
	d="
M129.000000,21.531088 
	C128.697174,21.872986 128.230133,21.830250 128.115417,21.606707 
	C124.727348,15.004373 121.374283,8.384080 118.007828,1.383321 
	C121.615700,1.000000 125.231407,1.000000 129.000000,1.000000 
	C129.000000,7.686836 129.000000,14.374506 129.000000,21.531088 
z"/>
<path fill="#816554" opacity="1.000000" stroke="none" 
	d="
M26.836929,111.358734 
	C28.955748,113.981819 30.928814,116.955872 33.056461,120.162918 
	C31.136478,122.821205 29.146915,125.575829 27.078676,128.665222 
	C23.638712,129.000000 20.277426,129.000000 16.458069,129.000000 
	C16.788755,127.808777 17.375570,126.394524 18.401669,125.465416 
	C22.566402,121.694328 26.318270,117.739769 26.836929,111.358734 
z"/>
<path fill="#9A8269" opacity="1.000000" stroke="none" 
	d="
M1.000000,109.437500 
	C3.899583,106.795975 7.555752,105.110390 9.509957,102.258545 
	C12.033520,98.575829 13.196522,93.960800 15.222382,89.495193 
	C15.997254,89.493492 16.495155,89.743843 16.993925,90.392540 
	C16.985624,91.851601 16.976454,92.912323 16.632347,94.151276 
	C15.863964,95.843216 15.135744,97.340088 15.048158,98.873558 
	C14.671063,105.475731 7.525831,114.307632 1.000000,116.000000 
	C1.000000,113.958336 1.000000,111.916664 1.000000,109.437500 
z"/>
<path fill="#937B65" opacity="1.000000" stroke="none" 
	d="
M1.000000,116.437500 
	C7.525831,114.307632 14.671063,105.475731 15.048158,98.873558 
	C15.135744,97.340088 15.863964,95.843216 16.641090,94.488731 
	C16.989061,95.097275 16.993345,95.546585 16.997629,95.995895 
	C17.312937,98.752892 17.628246,101.509880 17.968338,104.634766 
	C12.550972,110.949921 7.108820,116.897186 1.333335,122.922226 
	C1.000000,120.958336 1.000000,118.916664 1.000000,116.437500 
z"/>
<path fill="#9A8771" opacity="1.000000" stroke="none" 
	d="
M4.057089,61.988678 
	C3.239441,60.738670 2.421793,59.488663 1.302073,58.119331 
	C1.000000,52.645069 1.000000,47.290142 1.335290,41.548988 
	C7.049785,43.374588 7.191453,48.364403 7.808904,53.281342 
	C7.506450,54.727840 7.355549,55.914474 7.169362,57.425571 
	C7.050423,58.173931 6.966772,58.597824 6.600280,59.126041 
	C5.563988,60.149803 4.810538,61.069241 4.057089,61.988678 
z"/>
<path fill="#8D7765" opacity="1.000000" stroke="none" 
	d="
M7.960457,53.021477 
	C7.191453,48.364403 7.049785,43.374588 1.335290,41.081383 
	C1.000000,37.969406 1.000000,34.938812 1.332438,31.532475 
	C4.107036,33.449371 6.549196,35.742020 9.002171,38.433941 
	C9.346788,40.587090 10.113745,42.390709 9.919272,44.083904 
	C9.573052,47.098320 8.645103,50.045929 7.960457,53.021477 
z"/>
<path fill="#816D5E" opacity="1.000000" stroke="none" 
	d="
M8.991356,38.034664 
	C6.549196,35.742020 4.107036,33.449371 1.332438,31.078363 
	C1.000000,28.629442 1.000000,26.258884 1.000000,23.444164 
	C7.616343,24.706360 10.974507,29.460915 10.652553,37.575272 
	C9.876253,38.019287 9.433805,38.026974 8.991356,38.034664 
z"/>
<path fill="#AE9C7E" opacity="1.000000" stroke="none" 
	d="
M114.013382,15.019827 
	C111.564278,14.763329 109.115173,14.506830 106.257446,13.773004 
	C103.899216,9.197117 101.949608,5.098558 100.000000,0.999999 
	C101.388893,1.000000 102.777779,1.000000 104.610687,1.381888 
	C105.921204,4.260608 106.646736,6.818218 107.690346,9.238684 
	C108.956322,12.174874 110.858910,12.345133 113.002022,9.996992 
	C114.615768,11.146599 116.229507,12.296205 117.699074,14.027039 
	C116.374390,14.745453 115.193886,14.882639 114.013382,15.019827 
z"/>
<path fill="#8C7866" opacity="1.000000" stroke="none" 
	d="
M84.562500,1.000000 
	C88.209755,4.228342 91.419502,7.456685 94.432991,10.984077 
	C90.507126,10.055142 86.777527,8.827157 82.955215,7.245814 
	C81.241669,4.928305 79.620834,2.964152 78.000000,1.000000 
	C80.041664,1.000000 82.083336,1.000000 84.562500,1.000000 
z"/>
<path fill="#87705D" opacity="1.000000" stroke="none" 
	d="
M77.550018,1.000000 
	C79.620834,2.964152 81.241669,4.928305 82.531235,7.140764 
	C80.770905,7.279204 79.341858,7.169336 78.016693,6.930410 
	C77.981384,6.804912 77.842171,6.808471 77.702965,6.812031 
	C77.810455,6.868768 77.917953,6.925505 77.919357,7.230659 
	C77.815681,7.659141 77.818108,7.839206 77.820534,8.019272 
	C73.499710,7.870277 70.164963,6.347444 69.026825,1.363416 
	C71.700012,1.000000 74.400032,1.000000 77.550018,1.000000 
z"/>
<path fill="#B7A383" opacity="1.000000" stroke="none" 
	d="
M112.992470,9.606303 
	C110.858910,12.345133 108.956322,12.174874 107.690346,9.238684 
	C106.646736,6.818218 105.921204,4.260608 105.027359,1.381888 
	C106.714355,1.000000 108.428719,1.000000 110.571533,1.000000 
	C111.660973,3.738538 112.321945,6.477076 112.992470,9.606303 
z"/>
<path fill="#A89276" opacity="1.000000" stroke="none" 
	d="
M99.583336,0.999999 
	C101.949608,5.098558 103.899216,9.197117 105.934303,13.633384 
	C100.273674,11.778637 95.948280,8.323614 95.073578,1.368307 
	C96.388893,1.000000 97.777779,1.000000 99.583336,0.999999 
z"/>
<path fill="#B19D7B" opacity="1.000000" stroke="none" 
	d="
M126.020233,48.991707 
	C126.819077,49.604622 127.617928,50.217529 128.708389,50.915222 
	C129.000000,52.714359 129.000000,54.428715 129.000000,56.571541 
	C128.192062,56.755272 127.384117,56.510540 126.288025,56.132942 
	C125.999863,56.000069 125.994652,56.003033 125.995850,55.602837 
	C125.666672,53.134583 125.336296,51.066528 125.259506,48.997330 
	C125.682137,48.994686 125.851189,48.993195 126.020233,48.991707 
z"/>
<path fill="#FCFCFA" opacity="1.000000" stroke="none" 
	d="
M78.113968,8.205788 
	C77.818108,7.839206 77.815681,7.659141 77.892105,7.251288 
	C77.970940,7.023501 77.912804,7.059468 77.912804,7.059468 
	C79.341858,7.169336 80.770905,7.279204 82.623947,7.494122 
	C86.777527,8.827157 90.507126,10.055142 94.575005,11.299728 
	C98.486633,14.367507 102.059982,17.418686 105.641624,20.476948 
	C108.215927,18.806854 110.830368,17.110729 113.729095,15.217215 
	C115.193886,14.882639 116.374390,14.745453 117.798935,14.346680 
	C118.323708,14.251826 118.604439,14.418559 119.021179,14.797804 
	C119.062050,15.420669 118.966919,15.831021 118.580505,16.740150 
	C117.861954,18.159260 117.434692,19.079594 116.737160,20.234760 
	C112.423836,26.499933 113.294350,33.377968 112.976303,40.441097 
	C112.039474,44.098812 111.211807,47.385212 110.225906,51.299889 
	C114.664139,50.400509 115.015953,46.427048 117.170837,43.771210 
	C117.613075,42.777241 117.854576,42.012344 118.386139,41.222469 
	C119.500862,42.199261 120.325531,43.201027 121.163345,44.574654 
	C121.458832,45.628967 121.741173,46.311420 122.002457,47.280357 
	C122.179932,48.088253 122.378464,48.609661 122.617416,49.513336 
	C122.935257,51.602673 123.212677,53.309746 123.587753,55.473522 
	C123.121971,63.619339 122.558533,71.308456 121.781609,79.293167 
	C119.204193,84.858284 116.840256,90.127815 114.476318,95.397339 
	C114.476318,95.397339 114.347610,95.453346 114.135208,95.741577 
	C112.816559,97.642464 111.710320,99.255112 110.604080,100.867760 
	C110.280190,100.944748 110.041145,101.130760 109.817360,101.647972 
	C109.417007,101.938591 109.180618,102.126045 109.001999,102.662903 
	C106.851067,104.566666 104.736755,106.240028 102.048508,108.023170 
	C101.322708,108.418098 101.170860,108.703255 101.019005,108.988403 
	C99.859306,109.986557 98.699623,110.984718 97.345551,112.250488 
	C95.162178,113.709541 93.173187,114.900993 90.578186,116.197250 
	C89.648888,116.505013 89.325600,116.707977 89.002312,116.910942 
	C89.002312,116.910942 88.589188,117.179848 88.141586,116.997734 
	C87.147987,116.547630 86.601990,116.279640 86.055984,116.011658 
	C86.679100,114.660576 87.302216,113.309494 88.340317,111.500198 
	C89.557518,109.694374 90.359726,108.346771 91.324074,106.773560 
	C91.601982,106.198288 91.717758,105.848625 91.869881,105.085434 
	C92.268372,100.110764 92.630508,95.549614 93.206566,90.705757 
	C93.964668,89.718910 94.508858,89.014778 95.307648,88.129745 
	C97.497795,83.461021 99.433350,78.973183 101.368904,74.485352 
	C101.022636,74.236526 100.676361,73.987709 100.330093,73.738884 
	C96.188683,77.422318 92.047264,81.105743 87.585968,84.874222 
	C86.629227,84.909698 85.992355,84.860123 85.321404,84.823654 
	C85.287315,84.836769 85.337143,84.890045 85.252594,84.586136 
	C84.845535,84.026031 84.523018,83.769829 84.234375,83.598579 
	C84.268250,83.683533 84.433777,83.605690 84.281143,83.305115 
	C81.345566,81.151649 78.562630,79.298767 75.436241,77.243576 
	C73.550903,76.624588 72.009010,76.207886 70.152519,75.706169 
	C70.152519,79.120720 70.152519,82.046112 70.079346,85.431610 
	C70.049362,89.930946 70.092560,93.970154 70.075500,98.254990 
	C70.051300,98.665321 70.087334,98.830025 70.123360,98.994728 
	C70.077827,99.439476 70.032288,99.884224 70.005142,100.918037 
	C70.100052,101.664383 70.176575,101.821671 70.253105,101.978951 
	C70.668839,102.233261 71.084572,102.487572 71.758255,102.842773 
	C72.038544,104.995667 72.060898,107.047691 72.072754,109.912399 
	C72.115089,111.493538 72.167938,112.261993 72.220795,113.030449 
	C72.174835,116.054657 72.128876,119.078873 72.064621,122.860352 
	C72.020599,124.041122 71.994888,124.464622 71.969177,124.888130 
	C67.719139,124.828873 63.469105,124.769608 59.103802,123.886269 
	C58.939968,116.718277 58.891403,110.374359 58.842834,104.030441 
	C58.900887,103.868568 58.958939,103.706688 59.445137,103.104225 
	C60.443333,93.733917 61.013378,84.804184 61.578373,75.953575 
	C58.322365,75.953575 56.171005,75.953575 54.128918,75.624939 
	C55.393887,74.252762 56.387440,72.871529 57.733795,72.225098 
	C63.099026,69.649094 68.605598,67.369354 73.999878,64.851471 
	C79.571022,62.251038 82.258759,58.768497 83.517319,52.714767 
	C82.638039,52.928246 81.802811,52.971935 81.124290,53.320595 
	C74.988808,56.473343 68.891090,59.699482 62.761520,62.863865 
	C57.507595,65.576195 52.226429,68.235741 46.641457,71.043381 
	C35.416847,82.288017 35.177086,95.097847 40.369892,108.768166 
	C42.262260,111.935562 44.154629,115.102951 46.367958,118.807556 
	C42.954056,117.593895 40.115791,116.584877 36.961433,115.383163 
	C36.645344,115.190468 36.597561,115.086441 36.401615,114.929230 
	C35.890343,114.474136 35.575016,114.176239 35.259689,113.878349 
	C33.493969,112.602570 31.728251,111.326790 29.660889,109.935318 
	C27.302914,107.983620 25.436991,105.850204 23.144764,104.382652 
	C19.863821,102.282097 18.526909,99.613640 19.414864,95.145012 
	C20.109842,92.083847 20.621933,89.722626 21.384438,87.119171 
	C23.847095,83.254539 26.059340,79.632133 28.271584,76.009735 
	C27.978554,75.700661 27.685522,75.391586 27.392492,75.082512 
	C24.469679,77.009949 21.546865,78.937386 18.348766,80.924973 
	C17.311203,81.523224 16.548927,82.061340 15.433578,82.713394 
	C13.724816,83.448792 12.369125,84.070236 10.755127,84.373230 
	C9.219586,78.355865 7.942353,72.656944 6.697281,66.584190 
	C6.780670,63.814140 6.831895,61.417931 6.883121,59.021721 
	C6.966772,58.597824 7.050423,58.173931 7.455601,57.247509 
	C10.166500,53.439491 12.555873,50.133995 15.221430,46.648300 
	C18.885866,42.405415 22.274118,38.342731 25.662369,34.280052 
	C25.163660,33.791409 24.664949,33.302761 24.166241,32.814117 
	C20.753433,35.485470 17.340628,38.156826 13.612780,40.929180 
	C12.751923,41.284073 12.206110,41.537964 11.660297,41.791859 
	C11.809341,40.544003 11.958386,39.296150 12.107430,38.048294 
	C13.125038,35.980076 14.142646,33.911854 15.227707,31.491554 
	C16.472862,29.981689 17.650564,28.823906 19.207590,27.177013 
	C27.136055,16.752337 37.581566,11.135524 48.996586,6.964334 
	C49.563366,6.912281 50.130142,6.860229 51.157158,6.592150 
	C51.617390,6.376124 52.008942,6.080344 52.008942,6.080344 
	C52.419769,6.143921 52.830601,6.207498 53.552204,6.299639 
	C53.862980,6.328202 53.747406,6.505031 53.790649,6.634523 
	C53.833893,6.764015 53.887474,6.732316 53.609756,6.823289 
	C53.190102,7.264137 53.048172,7.614013 52.939911,7.961096 
	C52.973583,7.958303 52.936119,7.902066 52.674835,8.094600 
	C51.501389,9.487679 50.589226,10.688224 49.478539,11.962334 
	C49.064598,12.241129 48.947536,12.492211 48.614738,12.941722 
	C46.502361,16.233938 44.704063,19.373577 42.905769,22.513216 
	C43.235359,22.779383 43.564949,23.045549 43.894539,23.311716 
	C45.591366,22.172615 47.288193,21.033516 49.186226,20.049828 
	C49.589687,20.472593 49.791935,20.739950 49.765820,21.292431 
	C44.786354,32.220387 47.413853,40.743771 56.449329,44.047501 
	C60.340267,41.508339 60.360123,37.941326 59.303566,33.996002 
	C59.790016,33.426708 60.093384,32.901855 60.644684,32.233955 
	C61.714489,30.949354 62.536358,29.807806 63.605293,28.488226 
	C64.230919,27.833960 64.609489,27.357723 64.988052,26.881487 
	C65.156891,26.903215 65.325737,26.924946 65.744789,27.149586 
	C65.994987,27.352495 66.231789,27.474649 66.231789,27.474649 
	C66.231789,27.474649 66.236977,27.682955 66.500610,27.988144 
	C73.103134,33.003284 70.015045,39.823723 70.260338,45.853001 
	C75.669853,45.214809 78.166191,43.433067 81.210983,38.267567 
	C81.188705,38.261398 81.231216,38.257336 81.491913,38.044579 
	C82.149765,36.558022 82.546921,35.284229 83.000809,33.619503 
	C83.336548,29.153875 83.615547,25.079178 83.913940,20.737751 
	C83.643600,20.280764 83.353867,20.090506 83.064140,19.900248 
	C83.064140,19.900248 83.065796,19.970137 83.089722,19.578012 
	C83.050507,18.459894 82.987350,17.733898 82.924202,17.007904 
	C81.418602,14.136037 79.912994,11.264170 78.113968,8.205788 
z"/>
<path fill="#776353" opacity="1.000000" stroke="none" 
	d="
M40.520950,108.376419 
	C35.177086,95.097847 35.416847,82.288017 46.804504,71.336029 
	C48.862656,73.337662 50.441898,75.171379 52.021141,77.005096 
	C54.719006,82.045135 55.579281,87.425446 54.633778,93.509506 
	C52.870026,93.166229 51.535572,92.210121 50.051708,91.649445 
	C48.011768,90.878662 45.169556,89.304459 43.925621,90.081871 
	C42.308731,91.092369 41.345436,94.023056 41.151901,96.219879 
	C40.898365,99.097847 41.671062,102.066231 42.002342,104.995720 
	C41.558899,105.992035 41.115452,106.988350 40.520950,108.376419 
z"/>
<path fill="#63554A" opacity="1.000000" stroke="none" 
	d="
M52.354050,76.992340 
	C50.441898,75.171379 48.862656,73.337662 47.120361,71.211288 
	C52.226429,68.235741 57.507595,65.576195 62.761520,62.863865 
	C68.891090,59.699482 74.988808,56.473343 81.124290,53.320595 
	C81.802811,52.971935 82.638039,52.928246 83.517319,52.714767 
	C82.258759,58.768497 79.571022,62.251038 73.999878,64.851471 
	C68.605598,67.369354 63.099026,69.649094 57.733795,72.225098 
	C56.387440,72.871529 55.393887,74.252762 54.130821,75.869736 
	C54.023453,76.443176 54.019440,76.932831 54.019440,76.932831 
	C53.575279,76.948418 53.131119,76.964005 52.354050,76.992340 
z"/>
<path fill="#7B604D" opacity="1.000000" stroke="none" 
	d="
M42.310448,105.149628 
	C41.671062,102.066231 40.898365,99.097847 41.151901,96.219879 
	C41.345436,94.023056 42.308731,91.092369 43.925621,90.081871 
	C45.169556,89.304459 48.011768,90.878662 50.051708,91.649445 
	C51.535572,92.210121 52.870026,93.166229 54.633335,93.972221 
	C53.868835,100.360054 53.784492,107.023819 49.965282,113.368240 
	C47.131466,110.257477 44.875011,107.780510 42.310448,105.149628 
z"/>
<path fill="#605147" opacity="1.000000" stroke="none" 
	d="
M54.249210,77.196495 
	C54.019440,76.932831 54.023453,76.443176 54.021545,76.198380 
	C56.171005,75.953575 58.322365,75.953575 61.578373,75.953575 
	C61.013378,84.804184 60.443333,93.733917 59.519554,102.857239 
	C59.265514,101.349358 59.217667,99.623856 59.490238,97.950539 
	C60.721115,90.394157 59.858028,83.384254 54.249210,77.196495 
z"/>
<path fill="#655044" opacity="1.000000" stroke="none" 
	d="
M58.567467,104.264816 
	C58.891403,110.374359 58.939968,116.718277 58.911324,123.524490 
	C58.222527,119.959114 57.610947,115.931450 56.996597,111.449646 
	C57.426586,108.830070 57.859341,106.664627 58.567467,104.264816 
z"/>
<path fill="#625248" opacity="1.000000" stroke="none" 
	d="
M48.904060,6.627036 
	C37.581566,11.135524 27.136055,16.752337 19.300243,26.866501 
	C19.001646,26.284517 18.989719,25.523937 19.124508,24.209415 
	C19.188673,23.105175 19.106123,22.554876 19.023575,22.004576 
	C19.024330,21.836069 19.025085,21.667562 19.025995,21.246181 
	C22.151180,18.739525 24.488657,16.379818 26.236177,12.416833 
	C27.735395,9.016942 32.982327,6.450871 37.078533,5.262796 
	C40.631897,4.232169 45.288399,2.109836 48.904060,6.627036 
z"/>
<path fill="#625248" opacity="1.000000" stroke="none" 
	d="
M51.959389,3.181276 
	C52.256268,3.186124 52.494446,3.387920 52.843975,3.812462 
	C52.633621,3.780994 52.282074,3.562000 51.959389,3.181276 
z"/>
<path fill="#625248" opacity="1.000000" stroke="none" 
	d="
M51.878910,6.026124 
	C52.008942,6.080344 51.617390,6.376124 51.373451,6.402241 
	C51.238926,6.120864 51.445377,5.968713 51.878910,6.026124 
z"/>
<path fill="#7C5E4A" opacity="1.000000" stroke="none" 
	d="
M95.053055,88.310646 
	C94.508858,89.014778 93.964668,89.718910 92.909004,90.942932 
	C90.926102,96.968903 89.454674,102.474983 87.983246,107.981071 
	C80.640686,111.089600 78.676575,109.965988 77.471214,101.774330 
	C77.136627,99.500473 77.145660,97.176041 76.999695,94.035522 
	C76.669151,89.845909 78.211746,88.226051 81.504509,87.551842 
	C82.916084,87.262817 84.079384,85.761208 85.355492,84.810547 
	C85.992355,84.860123 86.629227,84.909698 87.817047,85.134796 
	C90.596352,86.310432 92.824699,87.310539 95.053055,88.310646 
z"/>
<path fill="#765B49" opacity="1.000000" stroke="none" 
	d="
M85.321404,84.823654 
	C84.079384,85.761208 82.916084,87.262817 81.504509,87.551842 
	C78.211746,88.226051 76.669151,89.845909 76.999115,93.598770 
	C75.871597,94.602066 74.747314,95.202820 73.314644,95.442261 
	C73.024231,92.285774 72.856972,89.474174 73.103058,86.699242 
	C73.483635,82.407677 75.694702,81.183029 79.672447,82.595062 
	C81.188148,83.133118 82.842575,83.280342 84.433777,83.605682 
	C84.433777,83.605690 84.268250,83.683533 84.384125,83.861862 
	C84.779053,84.323471 85.058098,84.606758 85.337143,84.890045 
	C85.337143,84.890045 85.287315,84.836769 85.321404,84.823654 
z"/>
<path fill="#6B5749" opacity="1.000000" stroke="none" 
	d="
M84.281143,83.305115 
	C82.842575,83.280342 81.188148,83.133118 79.672447,82.595062 
	C75.694702,81.183029 73.483635,82.407677 73.103058,86.699242 
	C72.856972,89.474174 73.024231,92.285774 73.008942,95.539154 
	C72.550728,96.601555 72.089821,97.205750 71.115585,97.906952 
	C70.602249,98.003967 70.135742,98.009369 70.135742,98.009369 
	C70.092560,93.970154 70.049362,89.930946 70.261124,85.136917 
	C72.270615,82.070030 74.025154,79.757950 75.779686,77.445877 
	C78.562630,79.298767 81.345566,81.151649 84.281143,83.305115 
z"/>
<path fill="#715A4B" opacity="1.000000" stroke="none" 
	d="
M87.996094,108.402603 
	C89.454674,102.474983 90.926102,96.968903 92.695091,91.225639 
	C92.630508,95.549614 92.268372,100.110764 91.634308,105.265167 
	C91.295563,106.238678 91.228745,106.618919 91.161942,106.999168 
	C90.359726,108.346771 89.557518,109.694374 88.451385,111.194382 
	C88.101288,110.505905 88.055115,109.665016 87.996094,108.402603 
z"/>
<path fill="#F5F0E9" opacity="1.000000" stroke="none" 
	d="
M85.765114,116.163361 
	C86.601990,116.279640 87.147987,116.547630 87.899651,117.044785 
	C86.917618,117.604218 85.729919,117.934471 84.542229,118.264732 
	C84.420181,118.024895 84.298141,117.785057 84.176094,117.545219 
	C84.608810,117.135170 85.041519,116.725121 85.765114,116.163361 
z"/>
<path fill="#5F5046" opacity="1.000000" stroke="none" 
	d="
M70.312531,101.852570 
	C70.176575,101.821671 70.100052,101.664383 70.070496,101.248650 
	C70.354050,101.194733 70.438881,101.440063 70.312531,101.852570 
z"/>
<path fill="#5F5046" opacity="1.000000" stroke="none" 
	d="
M70.075500,98.254990 
	C70.135742,98.009369 70.602249,98.003967 70.836365,98.007698 
	C70.905197,98.270477 70.710167,98.504768 70.304382,98.854507 
	C70.087334,98.830025 70.051300,98.665321 70.075500,98.254990 
z"/>
<path fill="#F5F0E9" opacity="1.000000" stroke="none" 
	d="
M89.307007,116.909813 
	C89.325600,116.707977 89.648888,116.505013 90.252045,116.232269 
	C90.225189,116.411217 89.918449,116.659950 89.307007,116.909813 
z"/>
<path fill="#69564A" opacity="1.000000" stroke="none" 
	d="
M48.928822,12.789145 
	C48.947536,12.492211 49.064598,12.241129 49.840996,11.910897 
	C51.246696,10.491286 52.091408,9.196676 52.936119,7.902066 
	C52.936119,7.902066 52.973583,7.958303 53.129898,7.778440 
	C53.486629,7.309824 53.687054,7.021070 53.887474,6.732316 
	C53.887474,6.732316 53.833893,6.764015 53.827301,6.733583 
	C56.747448,7.615514 57.273445,9.489642 55.970226,12.087427 
	C54.705097,14.609270 55.469299,15.913439 57.827927,17.705725 
	C60.688625,19.879526 62.604137,23.297190 64.958328,26.529076 
	C64.609489,27.357723 64.230919,27.833960 63.334251,28.268991 
	C58.781101,27.728285 58.804729,29.595383 60.396751,32.377003 
	C60.093384,32.901855 59.790016,33.426708 58.938889,33.970009 
	C51.431305,33.255253 51.141048,32.856010 52.541779,25.912558 
	C52.670723,25.273357 52.815521,24.636818 52.972641,24.003929 
	C53.628483,21.362139 52.108734,20.890987 49.994186,21.007307 
	C49.791935,20.739950 49.589687,20.472593 49.192390,19.607601 
	C48.974499,16.936359 48.951660,14.862752 48.928822,12.789145 
M52.527946,15.499841 
	C52.527946,15.499841 52.488976,15.513637 52.527946,15.499841 
z"/>
<path fill="#6A5B53" opacity="1.000000" stroke="none" 
	d="
M81.233261,38.273735 
	C78.166191,43.433067 75.669853,45.214809 70.260338,45.853001 
	C70.015045,39.823723 73.103134,33.003284 66.604141,27.999863 
	C68.472961,29.307337 70.501884,30.908278 72.772415,33.143593 
	C74.117332,40.030575 74.371613,40.169662 81.233261,38.273735 
z"/>
<path fill="#6C5C50" opacity="1.000000" stroke="none" 
	d="
M81.210983,38.267567 
	C74.371613,40.169662 74.117332,40.030575 73.005730,33.389359 
	C75.427902,33.680435 77.858368,34.360119 80.644302,35.019794 
	C80.999779,34.999786 81.001709,35.001213 81.009712,35.408936 
	C81.088882,36.630219 81.160049,37.443779 81.231216,38.257336 
	C81.231216,38.257336 81.188705,38.261398 81.210983,38.267567 
z"/>
<path fill="#6C5C50" opacity="1.000000" stroke="none" 
	d="
M83.894547,21.004480 
	C83.615547,25.079178 83.336548,29.153875 82.756927,33.741280 
	C81.971451,34.503059 81.486580,34.752132 81.001709,35.001213 
	C81.001709,35.001213 80.999779,34.999786 80.996948,34.996895 
	C81.324196,32.926941 81.654282,30.859875 81.991272,28.397282 
	C82.313919,25.928648 82.629677,23.855539 83.196686,21.391766 
	C83.447937,21.001101 83.894554,21.004480 83.894547,21.004480 
z"/>
<path fill="#6A5B53" opacity="1.000000" stroke="none" 
	d="
M66.278564,27.380821 
	C66.231789,27.474649 65.994987,27.352495 65.990433,27.219376 
	C65.985870,27.086254 66.263298,27.054214 66.263298,27.054214 
	C66.263298,27.054214 66.325348,27.286991 66.278564,27.380821 
z"/>
<path fill="#755F50" opacity="1.000000" stroke="none" 
	d="
M82.649712,17.115337 
	C82.987350,17.733898 83.050507,18.459894 83.119469,19.559650 
	C82.875259,19.029865 82.625237,18.126320 82.649712,17.115337 
z"/>
<path fill="#755F50" opacity="1.000000" stroke="none" 
	d="
M83.913940,20.737751 
	C83.894554,21.004480 83.447937,21.001101 83.224693,21.000351 
	C83.006409,20.816525 83.011368,20.633450 83.040237,20.175312 
	C83.353867,20.090506 83.643600,20.280764 83.913940,20.737751 
z"/>
<path fill="#8B7966" opacity="1.000000" stroke="none" 
	d="
M15.786650,82.599449 
	C16.548927,82.061340 17.311203,81.523224 18.700977,81.016022 
	C19.930325,83.151749 20.532175,85.256577 21.134026,87.361397 
	C20.621933,89.722626 20.109842,92.083847 19.389133,94.733902 
	C18.633062,95.262115 18.085615,95.501503 17.267899,95.868393 
	C16.993345,95.546585 16.989061,95.097275 16.976030,94.310501 
	C16.976454,92.912323 16.985624,91.851601 17.162445,90.114174 
	C19.944403,86.451912 17.423887,84.625366 15.786650,82.599449 
z"/>
<path fill="#68564B" opacity="1.000000" stroke="none" 
	d="
M18.870930,22.178566 
	C19.106123,22.554876 19.188673,23.105175 19.117176,23.829088 
	C18.881516,23.452652 18.799900,22.902603 18.870930,22.178566 
z"/>
<path fill="#9A8771" opacity="1.000000" stroke="none" 
	d="
M6.665118,66.958031 
	C7.942353,72.656944 9.219586,78.355865 10.757376,84.591766 
	C11.007099,85.420044 10.997522,85.711388 10.989202,86.002769 
	C9.886186,85.710983 8.783170,85.419205 7.344178,85.062119 
	C5.898594,78.186867 4.788985,71.376900 4.066833,64.509735 
	C5.191233,65.287689 5.928176,66.122864 6.665118,66.958031 
z"/>
<path fill="#857768" opacity="1.000000" stroke="none" 
	d="
M6.697281,66.584190 
	C5.928176,66.122864 5.191233,65.287689 4.267578,64.234360 
	C4.066875,63.565723 4.052886,63.115257 4.047993,62.326736 
	C4.810538,61.069241 5.563988,60.149803 6.600279,59.126041 
	C6.831895,61.417931 6.780670,63.814140 6.697281,66.584190 
z"/>
<path fill="#735D50" opacity="1.000000" stroke="none" 
	d="
M72.477066,112.916153 
	C72.167938,112.261993 72.115089,111.493538 72.141830,110.346039 
	C72.392052,110.911949 72.562698,111.856903 72.477066,112.916153 
z"/>
<path fill="#735D50" opacity="1.000000" stroke="none" 
	d="
M72.142151,124.934799 
	C71.994888,124.464622 72.020599,124.041122 72.129265,123.310043 
	C72.246521,123.662140 72.280823,124.321800 72.142151,124.934799 
z"/>
<path fill="#9C8974" opacity="1.000000" stroke="none" 
	d="
M121.995094,78.997566 
	C122.558533,71.308456 123.121971,63.619339 123.910522,55.580299 
	C124.755318,55.487923 125.374985,55.745480 125.994652,56.003033 
	C125.994652,56.003033 125.999863,56.000069 125.997429,56.002884 
	C125.724518,62.053818 125.454048,68.101929 125.102814,74.554459 
	C124.494720,76.133942 123.967384,77.309013 122.982239,78.737305 
	C122.347977,78.992874 122.171532,78.995224 121.995094,78.997566 
z"/>
<path fill="#8C7B65" opacity="1.000000" stroke="none" 
	d="
M121.781609,79.293167 
	C122.171532,78.995224 122.347977,78.992874 122.789787,78.990540 
	C122.088516,83.072914 121.121887,87.155289 120.079185,91.615051 
	C119.424454,93.127693 118.845795,94.262955 118.133438,95.691895 
	C117.111847,95.877319 116.223953,95.769081 114.906189,95.529091 
	C116.840256,90.127815 119.204193,84.858284 121.781609,79.293167 
z"/>
<path fill="#866A54" opacity="1.000000" stroke="none" 
	d="
M101.196770,108.876724 
	C101.170860,108.703255 101.322708,108.418098 101.728989,108.160629 
	C101.801796,108.403084 101.598831,108.595329 101.196770,108.876724 
z"/>
<path fill="#785847" opacity="1.000000" stroke="none" 
	d="
M98.991982,112.987259 
	C98.983215,112.975800 99.134689,112.944748 99.079147,112.980515 
	C99.023605,113.016273 99.000748,112.998726 98.991982,112.987259 
z"/>
<path fill="#755A4B" opacity="1.000000" stroke="none" 
	d="
M35.112587,114.083115 
	C35.575016,114.176239 35.890343,114.474136 36.347374,114.947525 
	C35.981216,114.844650 35.473351,114.566269 35.112587,114.083115 
z"/>
<path fill="#8C7B65" opacity="1.000000" stroke="none" 
	d="
M111.009850,100.867271 
	C111.710320,99.255112 112.816559,97.642464 114.152252,95.809662 
	C115.216866,98.373703 114.967224,100.548180 111.009850,100.867271 
z"/>
<path fill="#92826A" opacity="1.000000" stroke="none" 
	d="
M11.257818,86.165161 
	C10.997522,85.711388 11.007099,85.420044 11.015682,84.910217 
	C12.369125,84.070236 13.724816,83.448792 15.433578,82.713394 
	C17.423887,84.625366 19.944403,86.451912 17.161575,89.715836 
	C16.495155,89.743843 15.997254,89.493492 15.248783,89.120743 
	C13.840952,88.108078 12.683694,87.217812 11.257818,86.165161 
z"/>
<path fill="#857768" opacity="1.000000" stroke="none" 
	d="
M14.945246,46.828503 
	C12.555873,50.133995 10.166500,53.439491 7.490888,56.923046 
	C7.355549,55.914474 7.506450,54.727840 7.808903,53.281342 
	C8.645103,50.045929 9.573052,47.098320 9.919272,44.083904 
	C10.113745,42.390709 9.346788,40.587090 9.002171,38.433941 
	C9.433805,38.026974 9.876253,38.019287 10.650103,38.008057 
	C11.169170,38.011513 11.356837,38.018509 11.825967,38.036896 
	C11.958386,39.296150 11.809341,40.544003 11.660297,41.791859 
	C12.206110,41.537964 12.751923,41.284073 13.625648,41.320389 
	C14.284122,43.349899 14.614684,45.089203 14.945246,46.828503 
z"/>
<path fill="#9F8E77" opacity="1.000000" stroke="none" 
	d="
M118.096069,41.247448 
	C117.854576,42.012344 117.613075,42.777241 116.873016,43.667736 
	C115.278122,42.552155 114.181786,41.310970 113.085449,40.069782 
	C113.294350,33.377968 112.423836,26.499933 117.063660,20.239443 
	C118.095390,20.012648 118.530357,20.016005 118.965324,20.019361 
	C118.679947,21.120539 118.394569,22.221718 117.756485,23.887388 
	C117.634544,30.050404 117.865303,35.648926 118.096069,41.247448 
z"/>
<path fill="#AA977C" opacity="1.000000" stroke="none" 
	d="
M118.386124,41.222469 
	C117.865303,35.648926 117.634544,30.050404 117.695007,24.223738 
	C119.196175,30.977022 119.592033,38.198410 123.979721,44.623703 
	C124.003014,44.997364 123.991196,45.005272 123.649734,44.865387 
	C122.588913,44.551266 121.869553,44.377033 121.150200,44.202797 
	C120.325531,43.201027 119.500862,42.199261 118.386124,41.222469 
z"/>
<path fill="#AA977C" opacity="1.000000" stroke="none" 
	d="
M122.576996,49.131069 
	C122.378464,48.609661 122.179932,48.088253 122.285202,47.184990 
	C123.056396,46.203846 123.523796,45.604561 123.991196,45.005272 
	C123.991196,45.005272 124.003014,44.997364 124.010574,44.990990 
	C124.676735,46.082901 125.335342,47.181183 126.007088,48.635590 
	C125.851189,48.993195 125.682137,48.994686 124.854263,49.012543 
	C123.655968,49.062958 123.116478,49.097012 122.576996,49.131069 
z"/>
<path fill="#AA977C" opacity="1.000000" stroke="none" 
	d="
M119.084808,19.750896 
	C118.530357,20.016005 118.095390,20.012648 117.333923,20.004612 
	C117.434692,19.079594 117.861954,18.159260 118.533936,17.052706 
	C118.920525,17.738468 119.062408,18.610449 119.084808,19.750896 
z"/>
<path fill="#FCFCFA" opacity="1.000000" stroke="none" 
	d="
M77.998192,7.002872 
	C77.917953,6.925505 77.810455,6.868768 77.702965,6.812031 
	C77.842171,6.808471 77.981384,6.804912 78.016693,6.930410 
	C77.912804,7.059468 77.970940,7.023501 77.998192,7.002872 
z"/>
<path fill="#A79071" opacity="1.000000" stroke="none" 
	d="
M122.617416,49.513336 
	C123.116478,49.097012 123.655968,49.062958 124.600685,49.013687 
	C125.336296,51.066528 125.666672,53.134583 125.995850,55.602837 
	C125.374985,55.745480 124.755318,55.487923 123.812874,55.123596 
	C123.212677,53.309746 122.935257,51.602673 122.617416,49.513336 
z"/>
<path fill="#605149" opacity="1.000000" stroke="none" 
	d="
M49.765820,21.292431 
	C52.108734,20.890987 53.628483,21.362139 52.972641,24.003929 
	C52.815521,24.636818 52.670723,25.273357 52.541779,25.912558 
	C51.141048,32.856010 51.431305,33.255253 58.755806,34.014450 
	C60.360123,37.941326 60.340267,41.508339 56.449329,44.047501 
	C47.413853,40.743771 44.786354,32.220387 49.765820,21.292431 
z"/>
<path fill="#786558" opacity="1.000000" stroke="none" 
	d="
M95.307648,88.129745 
	C92.824699,87.310539 90.596352,86.310432 88.136925,85.049759 
	C92.047264,81.105743 96.188683,77.422318 100.330093,73.738884 
	C100.676361,73.987709 101.022636,74.236526 101.368904,74.485352 
	C99.433350,78.973183 97.497795,83.461021 95.307648,88.129745 
M93.892990,84.533455 
	C93.407005,84.816879 92.921013,85.100311 92.435028,85.383736 
	C92.737175,85.699043 93.039314,86.014351 93.341461,86.329659 
	C93.640114,85.846123 93.938766,85.362595 93.892990,84.533455 
z"/>
<path fill="#6C6159" opacity="1.000000" stroke="none" 
	d="
M15.221431,46.648300 
	C14.614684,45.089203 14.284122,43.349899 13.940691,41.219391 
	C17.340628,38.156826 20.753433,35.485470 24.166241,32.814117 
	C24.664949,33.302761 25.163660,33.791409 25.662369,34.280052 
	C22.274118,38.342731 18.885866,42.405415 15.221431,46.648300 
z"/>
<path fill="#7D746C" opacity="1.000000" stroke="none" 
	d="
M21.384439,87.119171 
	C20.532175,85.256577 19.930325,83.151749 18.976265,80.955879 
	C21.546865,78.937386 24.469679,77.009949 27.392492,75.082512 
	C27.685522,75.391586 27.978554,75.700661 28.271584,76.009735 
	C26.059340,79.632133 23.847095,83.254539 21.384439,87.119171 
z"/>
<path fill="#817866" opacity="1.000000" stroke="none" 
	d="
M112.976303,40.441097 
	C114.181786,41.310970 115.278122,42.552155 116.672279,43.896812 
	C115.015953,46.427048 114.664139,50.400509 110.225906,51.299889 
	C111.211807,47.385212 112.039474,44.098812 112.976303,40.441097 
z"/>
<path fill="#5A504B" opacity="1.000000" stroke="none" 
	d="
M48.614738,12.941722 
	C48.951660,14.862752 48.974499,16.936359 48.991180,19.452190 
	C47.288193,21.033516 45.591366,22.172615 43.894539,23.311716 
	C43.564949,23.045549 43.235359,22.779383 42.905769,22.513216 
	C44.704063,19.373577 46.502361,16.233938 48.614738,12.941722 
z"/>
<path fill="#5F5046" opacity="1.000000" stroke="none" 
	d="
M75.436241,77.243576 
	C74.025154,79.757950 72.270615,82.070030 70.334305,84.676804 
	C70.152519,82.046112 70.152519,79.120720 70.152519,75.706169 
	C72.009010,76.207886 73.550903,76.624588 75.436241,77.243576 
z"/>
<path fill="#605149" opacity="1.000000" stroke="none" 
	d="
M60.644684,32.233955 
	C58.804729,29.595383 58.781101,27.728285 63.087185,28.447021 
	C62.536358,29.807806 61.714489,30.949354 60.644684,32.233955 
z"/>
<path fill="#5A504B" opacity="1.000000" stroke="none" 
	d="
M52.674835,8.094599 
	C52.091408,9.196676 51.246696,10.491286 50.039528,11.837334 
	C50.589226,10.688224 51.501389,9.487679 52.674835,8.094599 
z"/>
<path fill="#6A5B53" opacity="1.000000" stroke="none" 
	d="
M81.009712,35.408936 
	C81.486580,34.752132 81.971451,34.503059 82.700203,34.132210 
	C82.546921,35.284229 82.149765,36.558022 81.491913,38.044579 
	C81.160049,37.443779 81.088882,36.630219 81.009712,35.408936 
z"/>
<path fill="#A79071" opacity="1.000000" stroke="none" 
	d="
M123.649734,44.865387 
	C123.523796,45.604561 123.056396,46.203846 122.306259,46.898502 
	C121.741173,46.311420 121.458832,45.628967 121.163345,44.574654 
	C121.869553,44.377033 122.588913,44.551266 123.649734,44.865387 
z"/>
<path fill="#6B5749" opacity="1.000000" stroke="none" 
	d="
M85.252594,84.586136 
	C85.058098,84.606758 84.779053,84.323471 84.350258,83.776901 
	C84.523018,83.769829 84.845535,84.026031 85.252594,84.586136 
z"/>
<path fill="#F5F0E9" opacity="1.000000" stroke="none" 
	d="
M91.324066,106.773560 
	C91.228745,106.618919 91.295563,106.238678 91.597961,105.678696 
	C91.717758,105.848625 91.601982,106.198288 91.324066,106.773560 
z"/>
<path fill="#5A504B" opacity="1.000000" stroke="none" 
	d="
M53.609756,6.823289 
	C53.687054,7.021070 53.486629,7.309824 53.096226,7.781233 
	C53.048172,7.614013 53.190102,7.264137 53.609756,6.823289 
z"/>
<path fill="#755F50" opacity="1.000000" stroke="none" 
	d="
M52.508461,15.506739 
	C52.488976,15.513637 52.527946,15.499841 52.508461,15.506739 
z"/>
<path fill="#7C5E4A" opacity="1.000000" stroke="none" 
	d="
M94.065201,84.706253 
	C93.938766,85.362595 93.640114,85.846123 93.341461,86.329659 
	C93.039314,86.014351 92.737175,85.699043 92.435028,85.383736 
	C92.921013,85.100311 93.407005,84.816879 94.065201,84.706253 
z"/>
</svg>