<svg version="1.1" id="Layer_1" xmlns="http://www.w3.org/2000/svg" xmlns:xlink="http://www.w3.org/1999/xlink" x="0px" y="0px"
	 width="100%" viewBox="0 0 128 128" enable-background="new 0 0 128 128" xml:space="preserve">
<path fill="#7F2E5D" opacity="1.000000" stroke="none" 
	d="
M64.000000,129.000000 
	C46.645771,129.000000 29.291544,129.000000 11.468489,128.559174 
	C10.994001,127.290581 11.115402,126.438461 10.962196,125.638969 
	C9.916459,120.181816 9.260485,114.887169 13.447263,110.169044 
	C14.225520,109.292015 14.224269,107.154495 13.790550,105.865211 
	C11.392289,98.736076 15.755594,94.408783 20.323048,90.136421 
	C24.465157,92.555061 28.305763,94.820091 32.251385,97.261276 
	C32.534847,97.650841 32.740189,97.834137 33.053757,98.327026 
	C35.094635,100.120171 37.054173,101.573631 39.153008,103.206345 
	C39.497753,103.611328 39.731365,103.802666 40.070450,104.301559 
	C41.758129,105.770630 43.368496,106.897766 45.042137,108.302177 
	C45.396687,109.061302 45.687962,109.543152 46.175133,110.302727 
	C47.735256,112.001427 49.101654,113.420326 50.463314,114.843750 
	C54.976460,119.561623 59.487904,124.281128 64.000000,129.000000 
z"/>
<path fill="#832963" opacity="1.000000" stroke="none" 
	d="
M129.000000,126.000000 
	C129.000000,126.991829 129.000000,127.983650 129.000000,129.000000 
	C112.312447,129.000000 95.624878,129.000000 78.555206,128.653351 
	C80.912689,124.719704 81.926186,121.005638 79.086243,116.666794 
	C82.129921,113.222519 85.092796,110.113342 88.384537,106.918869 
	C90.198387,105.848724 91.700325,104.888367 93.164925,103.874084 
	C96.452927,101.597046 99.722382,99.293221 102.972885,97.360291 
	C101.801117,99.478539 100.574272,101.189857 99.529396,103.005882 
	C97.893250,105.849533 96.380104,108.763954 94.502762,112.223541 
	C98.409935,112.521210 101.081085,112.284866 103.466957,113.000114 
	C108.109886,114.392006 112.615654,116.260254 117.127563,118.058350 
	C118.398598,118.564888 120.450630,119.439651 120.514862,120.271362 
	C120.955635,125.978828 124.737701,126.242050 129.000000,126.000000 
z"/>
<path fill="#882B66" opacity="1.000000" stroke="none" 
	d="
M129.000000,125.531364 
	C124.737701,126.242050 120.955635,125.978828 120.514862,120.271362 
	C120.450630,119.439651 118.398598,118.564888 117.127563,118.058350 
	C112.615654,116.260254 108.109886,114.392006 103.466957,113.000114 
	C101.081085,112.284866 98.409935,112.521210 94.502762,112.223541 
	C96.380104,108.763954 97.893250,105.849533 99.529396,103.005882 
	C100.574272,101.189857 101.801117,99.478539 102.973190,97.360138 
	C103.000000,97.000000 103.000206,96.999390 103.330414,96.931717 
	C106.821205,96.269516 106.650543,94.172226 106.080505,91.529282 
	C110.485550,87.817505 114.742546,84.404427 119.320374,80.989929 
	C120.067070,80.965973 120.492928,80.943451 120.899376,81.279831 
	C118.455750,84.165695 115.941223,86.614395 113.650887,89.257378 
	C112.708160,90.345268 111.551048,91.954216 111.726852,93.143532 
	C112.010353,95.061371 112.916008,97.982201 114.263542,98.450150 
	C119.013756,100.099754 124.063728,100.886162 129.000000,102.000000 
	C129.000000,109.687576 129.000000,117.375153 129.000000,125.531364 
z"/>
<path fill="#7D3258" opacity="1.000000" stroke="none" 
	d="
M20.021549,89.982819 
	C15.755594,94.408783 11.392289,98.736076 13.790550,105.865211 
	C14.224269,107.154495 14.225520,109.292015 13.447263,110.169044 
	C9.260485,114.887169 9.916459,120.181816 10.962196,125.638969 
	C11.115402,126.438461 10.994001,127.290581 10.999830,128.559174 
	C7.692932,129.000000 4.385864,129.000000 1.000000,129.000000 
	C1.000000,113.979187 1.000000,98.958252 1.402950,83.466461 
	C4.537992,82.337219 7.270085,81.678833 10.222403,81.301331 
	C11.644968,84.361107 13.520724,85.583878 16.624430,84.204880 
	C16.729504,84.197838 16.772776,84.403969 16.769663,84.732330 
	C17.561682,85.675911 18.356812,86.291122 19.110104,86.911995 
	C19.068266,86.917648 19.059586,86.833664 19.189907,87.048943 
	C19.542898,87.513535 19.765568,87.762848 19.993961,88.340706 
	C20.006973,89.107109 20.014261,89.544960 20.021549,89.982819 
z"/>
<path fill="#8B3069" opacity="1.000000" stroke="none" 
	d="
M129.000000,101.531342 
	C124.063728,100.886162 119.013756,100.099754 114.263542,98.450150 
	C112.916008,97.982201 112.010353,95.061371 111.726852,93.143532 
	C111.551048,91.954216 112.708160,90.345268 113.650887,89.257378 
	C115.941223,86.614395 118.455750,84.165695 120.713089,80.923447 
	C120.412598,79.974663 120.278961,79.741158 120.175407,79.379745 
	C120.205482,79.251839 120.456276,79.173325 120.829613,79.228394 
	C122.126862,77.254242 123.711845,75.271873 123.859558,73.187637 
	C124.478577,64.453056 124.666962,55.687950 125.300827,47.075920 
	C125.752838,48.589401 125.614052,50.099499 126.160980,51.296192 
	C126.791267,52.675247 128.027130,53.777527 129.000000,55.000000 
	C129.000000,55.444447 129.000000,55.888889 128.684387,56.815315 
	C126.448280,59.434059 126.293129,61.375427 129.000000,63.000000 
	C129.000000,75.687561 129.000000,88.375122 129.000000,101.531342 
z"/>
<path fill="#78354E" opacity="1.000000" stroke="none" 
	d="
M10.002178,81.020454 
	C7.270085,81.678833 4.537992,82.337219 1.402950,82.997803 
	C1.000000,61.645771 1.000000,40.291542 1.335342,18.471733 
	C2.117792,18.011560 2.564900,18.016970 3.010216,18.459570 
	C4.070725,23.131525 4.476320,27.705908 6.428383,31.480530 
	C7.709618,33.958000 8.534312,35.653957 7.062737,38.039833 
	C7.034924,38.036137 7.078463,38.071861 6.788634,38.164276 
	C6.055874,39.597076 5.209754,40.944798 5.233965,42.276695 
	C5.423078,52.680202 5.687542,63.085258 6.207245,73.475906 
	C6.268118,74.692970 8.020335,75.825439 9.191177,77.167801 
	C9.630719,77.800262 9.867552,78.262047 10.081534,79.106140 
	C10.039849,79.999115 10.021014,80.509781 10.002178,81.020454 
z"/>
<path fill="#984071" opacity="1.000000" stroke="none" 
	d="
M79.000000,1.000000 
	C92.020897,1.000000 105.041786,1.000000 118.558281,1.328836 
	C119.366783,3.774461 119.679688,5.891249 119.624313,7.962221 
	C117.428757,7.184939 115.652725,6.058928 113.762329,5.813381 
	C110.839676,5.433752 107.535477,4.839077 104.938339,5.803673 
	C100.417404,7.482783 96.312195,10.281207 93.260658,11.942065 
	C88.859688,9.223469 85.434914,7.107893 81.894485,4.693367 
	C80.852554,3.262943 79.926277,2.131471 79.000000,1.000000 
z"/>
<path fill="#77384C" opacity="1.000000" stroke="none" 
	d="
M1.000000,14.000000 
	C1.000000,9.718594 1.000000,5.437187 1.000000,1.000000 
	C8.687016,1.000000 16.374817,1.000000 24.610409,1.330738 
	C26.108259,3.441176 27.058319,5.220876 27.650633,6.976557 
	C25.186922,6.639786 23.080956,6.327035 20.702702,6.076192 
	C19.958292,6.423969 19.486170,6.709838 18.896099,7.107772 
	C18.778152,7.219836 18.454741,7.183989 18.144230,7.056848 
	C16.222601,7.288961 14.611483,7.648217 12.800249,7.879392 
	C12.069233,8.163399 11.538332,8.575486 10.822127,9.140259 
	C10.399104,9.509315 10.185926,9.747640 9.635687,10.034504 
	C6.516056,11.374062 3.758028,12.687031 1.000000,14.000000 
z"/>
<path fill="#843D59" opacity="1.000000" stroke="none" 
	d="
M28.008377,7.000576 
	C27.058319,5.220876 26.108259,3.441176 25.079102,1.330738 
	C29.689257,1.000000 34.378513,1.000000 39.552399,1.395706 
	C41.505177,2.859987 42.889072,4.079058 44.462334,4.959894 
	C46.532825,6.119119 48.752216,7.012392 50.608528,7.960255 
	C49.218437,8.292313 48.127403,8.684135 47.036621,9.040035 
	C47.036873,9.004114 47.090549,9.051874 46.712212,9.055271 
	C45.229427,10.059854 44.124981,11.061038 42.955513,12.322406 
	C42.776184,12.720063 42.661873,12.857537 42.227623,13.031560 
	C40.938492,14.040688 39.969303,15.013267 38.706177,15.801994 
	C36.781086,15.041466 35.149925,14.464787 33.365143,13.832386 
	C33.211521,13.776664 33.123428,13.461923 33.226425,13.099610 
	C31.807688,11.880563 30.285954,11.023828 28.803295,10.161074 
	C28.842371,10.155056 28.849014,10.233847 28.871658,9.888202 
	C28.598995,8.695230 28.303686,7.847903 28.008377,7.000576 
z"/>
<path fill="#933B70" opacity="1.000000" stroke="none" 
	d="
M129.000000,54.531342 
	C128.027130,53.777527 126.791267,52.675247 126.160980,51.296192 
	C125.614052,50.099499 125.752838,48.589401 125.296005,46.659084 
	C124.663986,43.756607 124.324524,41.412865 123.928711,38.775501 
	C123.893990,38.283737 123.915627,38.085594 123.854294,37.574928 
	C123.478874,35.353554 123.186432,33.444702 123.059982,31.211708 
	C126.883026,24.560076 126.027397,17.345646 121.000183,11.736006 
	C120.996529,10.563969 120.993652,9.782623 121.295044,9.149245 
	C124.066216,10.864808 126.533112,12.432403 129.000000,13.999998 
	C129.000000,27.354227 129.000000,40.708454 129.000000,54.531342 
z"/>
<path fill="#8A3E62" opacity="1.000000" stroke="none" 
	d="
M50.907585,8.020020 
	C48.752216,7.012392 46.532825,6.119119 44.462334,4.959894 
	C42.889072,4.079058 41.505177,2.859987 40.018513,1.395706 
	C46.354397,1.000000 52.708797,1.000000 59.466408,1.344925 
	C59.628250,2.594331 59.386883,3.498811 59.057976,4.585473 
	C58.776558,4.978379 58.536518,5.088343 57.910965,5.193248 
	C55.618690,6.560486 53.665760,7.832026 51.509384,9.078163 
	C51.305939,9.052762 50.994816,8.785657 50.972416,8.594315 
	C50.950016,8.402973 50.907585,8.020020 50.907585,8.020020 
z"/>
<path fill="#9A3E74" opacity="1.000000" stroke="none" 
	d="
M129.000000,13.523336 
	C126.533112,12.432403 124.066216,10.864808 121.111206,9.002016 
	C120.387978,8.496406 120.177811,8.263478 119.992599,8.008038 
	C119.679688,5.891249 119.366783,3.774461 119.026939,1.328836 
	C122.266174,1.000000 125.532349,1.000000 129.000000,1.000000 
	C129.000000,5.014203 129.000000,9.030439 129.000000,13.523336 
z"/>
<path fill="#7C275D" opacity="1.000000" stroke="none" 
	d="
M79.005440,117.001900 
	C81.926186,121.005638 80.912689,124.719704 78.086548,128.653351 
	C75.299988,129.000000 72.599968,129.000000 69.524048,128.648895 
	C69.731606,126.478699 70.315063,124.659607 70.966736,122.571655 
	C71.358307,121.858612 71.681656,121.414421 72.352661,120.938492 
	C74.802025,119.605125 76.903732,118.303513 79.005440,117.001900 
z"/>
<path fill="#703159" opacity="1.000000" stroke="none" 
	d="
M70.898521,122.840515 
	C70.315063,124.659607 69.731606,126.478699 69.074074,128.648895 
	C67.611107,129.000000 66.222221,129.000000 64.416664,129.000000 
	C59.487904,124.281128 54.976460,119.561623 50.463314,114.843750 
	C49.101654,113.420326 47.735256,112.001427 46.587002,110.274109 
	C47.350941,109.920929 47.898911,109.874092 48.691261,110.040848 
	C55.061726,115.448952 61.187813,120.643456 67.313896,125.837959 
	C66.663399,126.362312 66.012909,126.886665 65.362411,127.411026 
	C67.207779,125.887520 69.053154,124.364021 70.898521,122.840515 
z"/>
<path fill="#933E6D" opacity="1.000000" stroke="none" 
	d="
M78.555832,1.000000 
	C79.926277,2.131471 80.852554,3.262943 81.578873,4.836349 
	C78.520813,6.785722 75.663536,8.069122 72.861008,5.197225 
	C72.900406,5.148155 72.998367,5.227162 72.797180,5.016521 
	C72.309441,4.544729 72.022888,4.283580 71.782532,4.088383 
	C71.828712,4.154334 71.697433,4.247587 71.707520,3.911483 
	C71.478401,2.716919 71.239204,1.858460 71.000000,1.000000 
	C73.370560,1.000000 75.741112,1.000000 78.555832,1.000000 
z"/>
<path fill="#713C4C" opacity="1.000000" stroke="none" 
	d="
M1.000000,14.399996 
	C3.758028,12.687031 6.516056,11.374062 9.682987,10.429955 
	C10.182531,11.322250 10.273172,11.845681 10.190591,12.198395 
	C10.017367,12.027677 10.372957,12.359261 10.048841,12.391947 
	C9.234162,13.051404 8.743599,13.678175 8.237646,14.259995 
	C8.222257,14.215044 8.308588,14.254749 7.970427,14.332478 
	C7.147917,15.128090 6.663568,15.845973 6.109071,16.784737 
	C5.725789,17.337799 5.412654,17.669979 4.751504,18.003601 
	C3.939663,18.010820 3.475836,18.016598 3.012009,18.022377 
	C2.564900,18.016970 2.117792,18.011560 1.335342,18.003077 
	C1.000000,16.933331 1.000000,15.866661 1.000000,14.399996 
z"/>
<path fill="#81415F" opacity="1.000000" stroke="none" 
	d="
M70.541931,1.000000 
	C71.239204,1.858460 71.478401,2.716919 71.322350,3.826631 
	C66.999908,4.186353 63.072712,4.294822 59.145515,4.403291 
	C59.386883,3.498811 59.628250,2.594331 59.934807,1.344925 
	C63.361286,1.000000 66.722572,1.000000 70.541931,1.000000 
z"/>
<path fill="#933B70" opacity="1.000000" stroke="none" 
	d="
M129.000000,62.571537 
	C126.293129,61.375427 126.448280,59.434059 128.684387,57.148643 
	C129.000000,58.714359 129.000000,60.428715 129.000000,62.571537 
z"/>
<path fill="#733E5C" opacity="1.000000" stroke="none" 
	d="
M20.323050,90.136421 
	C20.014261,89.544960 20.006973,89.107109 19.994925,88.128586 
	C19.990164,87.587929 19.989286,87.163910 20.317152,87.226273 
	C24.494541,90.444908 28.344065,93.601173 32.190578,96.840622 
	C32.187569,96.923813 32.146366,97.085129 32.146370,97.085129 
	C28.305763,94.820091 24.465157,92.555061 20.323050,90.136421 
z"/>
<path fill="#6D3052" opacity="1.000000" stroke="none" 
	d="
M39.013714,103.027084 
	C37.054173,101.573631 35.094635,100.120171 33.080536,98.311447 
	C33.025982,97.956177 33.076042,97.919662 33.407265,97.988205 
	C35.519146,99.678902 37.299797,101.301064 39.062416,102.948326 
	C39.044388,102.973427 39.013714,103.027084 39.013714,103.027084 
z"/>
<path fill="#6D3052" opacity="1.000000" stroke="none" 
	d="
M44.978867,108.024902 
	C43.368496,106.897766 41.758129,105.770630 40.099022,104.284851 
	C40.050285,103.926224 40.103409,103.886757 40.445297,103.910599 
	C42.220486,105.257690 43.653786,106.580940 45.059608,107.933983 
	C45.032135,107.963783 44.978867,108.024902 44.978867,108.024902 
z"/>
<path fill="#6D3052" opacity="1.000000" stroke="none" 
	d="
M48.446877,109.827255 
	C47.898911,109.874092 47.350941,109.920929 46.391106,109.996384 
	C45.687962,109.543152 45.396687,109.061302 45.042137,108.302177 
	C44.978867,108.024902 45.032135,107.963783 45.401302,107.963501 
	C46.662605,108.584557 47.554741,109.205910 48.446877,109.827255 
z"/>
<path fill="#6D3052" opacity="1.000000" stroke="none" 
	d="
M40.021713,103.942924 
	C39.731365,103.802666 39.497753,103.611328 39.153008,103.206345 
	C39.013714,103.027084 39.044388,102.973427 39.304321,103.022186 
	C39.743973,103.342880 39.923691,103.614822 40.103409,103.886757 
	C40.103409,103.886757 40.050285,103.926224 40.021713,103.942924 
z"/>
<path fill="#6D3052" opacity="1.000000" stroke="none" 
	d="
M32.999199,97.971756 
	C32.740189,97.834137 32.534847,97.650841 32.251381,97.261276 
	C32.146366,97.085129 32.187569,96.923813 32.425648,96.951248 
	C32.801163,97.292351 32.938602,97.606003 33.076042,97.919662 
	C33.076042,97.919662 33.025982,97.956177 32.999199,97.971756 
z"/>
<path fill="#703159" opacity="1.000000" stroke="none" 
	d="
M79.086243,116.666794 
	C76.903732,118.303513 74.802025,119.605125 72.341713,120.595093 
	C77.258751,115.345428 82.534401,110.407394 87.867218,105.853745 
	C87.968155,106.493469 88.011917,106.748817 88.055679,107.004166 
	C85.092796,110.113342 82.129921,113.222519 79.086243,116.666794 
z"/>
<path fill="#763960" opacity="1.000000" stroke="none" 
	d="
M88.384537,106.918869 
	C88.011917,106.748817 87.968155,106.493469 88.067657,105.606689 
	C93.144302,101.332306 98.077690,97.689346 103.010345,94.415543 
	C103.006477,95.522934 103.003342,96.261162 103.000206,96.999390 
	C103.000206,96.999390 103.000000,97.000000 102.999695,97.000153 
	C99.722382,99.293221 96.452927,101.597046 93.164925,103.874084 
	C91.700325,104.888367 90.198387,105.848724 88.384537,106.918869 
z"/>
<path fill="#FBF7FA" opacity="1.000000" stroke="none" 
	d="
M103.011078,94.046387 
	C98.077690,97.689346 93.144302,101.332306 88.010483,105.222313 
	C82.534401,110.407394 77.258751,115.345428 71.994057,120.626846 
	C71.681656,121.414421 71.358307,121.858612 70.966736,122.571655 
	C69.053154,124.364021 67.207779,125.887520 65.362411,127.411026 
	C66.012909,126.886665 66.663399,126.362312 67.313896,125.837959 
	C61.187813,120.643456 55.061726,115.448952 48.691261,110.040855 
	C47.554741,109.205910 46.662605,108.584557 45.428780,107.933701 
	C43.653786,106.580940 42.220486,105.257690 40.445297,103.910599 
	C39.923691,103.614822 39.743973,103.342880 39.322350,102.997086 
	C37.299797,101.301064 35.519146,99.678902 33.407265,97.988205 
	C32.938602,97.606003 32.801163,97.292351 32.428658,96.868065 
	C28.344065,93.601173 24.494541,90.444908 20.092251,87.122673 
	C19.539482,86.956703 19.059586,86.833664 19.059586,86.833664 
	C19.059586,86.833664 19.068266,86.917648 19.010227,86.629669 
	C18.225719,85.695786 17.499249,85.049873 16.772776,84.403969 
	C16.772776,84.403969 16.729504,84.197838 16.433685,83.956490 
	C14.126705,82.051376 12.115545,80.387604 10.104385,78.723831 
	C9.867552,78.262047 9.630719,77.800262 9.196038,76.702141 
	C8.358281,63.401157 7.718372,50.736507 7.078463,38.071861 
	C7.078463,38.071861 7.034924,38.036137 7.407035,37.946129 
	C10.181575,39.538197 12.584003,41.220276 15.210995,43.059582 
	C17.304640,41.472664 19.213181,39.462406 21.549971,38.359520 
	C28.838852,34.919418 28.869209,28.626495 27.801779,22.281557 
	C27.484167,20.393641 24.870386,18.693897 22.974306,17.396715 
	C22.441782,17.032394 20.720274,18.406004 18.885281,19.305357 
	C20.417820,20.347500 20.972502,20.676981 21.474066,21.073627 
	C24.366316,23.360884 25.525454,29.261925 23.598507,31.813896 
	C20.825861,35.485878 15.664276,35.971004 11.960313,33.759380 
	C5.728633,30.038471 6.710888,23.531582 5.099519,18.002159 
	C5.412654,17.669979 5.725789,17.337799 6.384004,16.620174 
	C7.255586,15.574736 7.782087,14.914742 8.308588,14.254749 
	C8.308588,14.254749 8.222257,14.215044 8.510109,14.148685 
	C9.322960,13.507972 9.847959,12.933617 10.372957,12.359261 
	C10.372957,12.359261 10.017367,12.027677 10.498278,12.057180 
	C13.471040,10.452452 15.962891,8.818221 18.454741,7.183990 
	C18.454741,7.183989 18.778152,7.219836 19.223709,7.141198 
	C20.107103,7.039670 20.544939,7.016778 21.260181,7.215833 
	C23.974731,8.369802 26.411873,9.301825 28.849014,10.233847 
	C28.849014,10.233847 28.842371,10.155056 28.988060,10.413193 
	C30.463642,11.601528 31.793535,12.531726 33.123428,13.461923 
	C33.123428,13.461923 33.211521,13.776664 33.557644,14.058027 
	C35.219994,15.581985 36.536221,16.824579 37.951637,18.503563 
	C38.082527,21.097549 38.019501,23.261600 38.165909,25.411386 
	C38.458649,29.709793 40.684944,31.535147 45.044979,30.808319 
	C45.044979,28.010159 45.044979,25.550600 45.361023,22.945271 
	C47.776878,21.737059 49.876694,20.674616 52.184380,19.945963 
	C52.392246,23.707575 52.392246,27.135401 52.392246,30.644463 
	C55.310455,30.644463 57.646931,30.644463 59.480904,30.644463 
	C60.024185,25.759642 60.517944,21.320082 61.389481,16.905828 
	C64.504066,16.899405 67.240875,16.867672 70.185486,16.923792 
	C70.393280,17.011644 70.838646,17.084009 70.882492,17.450130 
	C71.002693,18.548264 71.079041,19.280275 71.091331,20.453903 
	C71.019119,22.894411 70.735374,24.946119 71.104591,26.872684 
	C71.331627,28.057266 72.348618,29.457905 73.402039,29.996428 
	C74.196083,30.402355 76.411339,29.863823 76.608391,29.278900 
	C77.391945,26.952976 77.631981,24.443953 78.191757,21.700050 
	C78.577110,20.817926 78.844032,20.238501 79.443192,19.776806 
	C81.481171,20.677208 83.186913,21.459883 85.106873,22.545280 
	C86.018333,25.197702 86.715561,27.547403 87.631905,30.635525 
	C89.252899,29.623808 90.631721,28.763235 92.209221,27.860092 
	C92.647232,27.606588 92.695122,27.358667 92.670471,26.687466 
	C92.740448,23.906483 92.691505,21.511795 92.791687,18.827497 
	C95.121086,16.444120 97.087334,14.051244 99.520126,12.310364 
	C108.244896,6.067046 110.736038,6.128305 119.567871,11.992287 
	C119.920052,12.226126 120.517685,12.090287 121.000954,12.126697 
	C126.027397,17.345646 126.883026,24.560076 122.708466,31.252087 
	C120.420319,32.963749 118.649696,34.310894 116.508133,35.758316 
	C110.330971,35.032799 106.828682,32.320385 106.573563,28.451855 
	C106.198036,22.757835 107.371483,21.517082 115.198761,18.856430 
	C113.282387,17.847397 110.955933,16.648933 109.174187,17.202795 
	C106.914078,17.905361 104.022957,19.632454 103.286644,21.616467 
	C100.970978,27.856071 103.129295,33.430237 108.465355,37.557579 
	C109.776482,38.571712 111.148132,39.507599 112.555031,40.424973 
	C112.618111,40.370491 112.502464,40.250420 112.646423,40.526810 
	C113.159821,40.976650 113.529274,41.150101 114.141434,41.598320 
	C116.109695,41.356052 117.888855,40.968685 119.545135,40.284054 
	C121.077560,39.650616 122.478455,38.698963 123.937271,37.887451 
	C123.915627,38.085594 123.893990,38.283737 123.786491,39.156326 
	C123.150131,50.912357 122.664268,61.997875 121.991127,73.072006 
	C121.866081,75.129280 120.987236,77.140724 120.456276,79.173325 
	C120.456276,79.173325 120.205482,79.251839 119.947647,79.498764 
	C119.459732,80.160919 119.229637,80.576134 118.999542,80.991356 
	C114.742546,84.404427 110.485550,87.817505 105.789230,91.634369 
	C104.570297,92.707565 103.790688,93.376976 103.011078,94.046387 
M106.310463,54.222668 
	C106.310463,54.222668 105.965996,54.008656 105.765846,53.400345 
	C104.522781,52.261883 103.279724,51.123417 101.732048,49.353043 
	C100.545349,48.760185 99.358643,48.167328 97.982574,46.969551 
	C96.963112,46.297649 95.943642,45.625748 95.034622,44.280064 
	C94.387001,43.797035 93.739380,43.314007 93.089775,42.935932 
	C93.089775,42.935932 93.194740,42.935207 93.015976,42.198963 
	C92.189598,37.726807 89.668030,36.128162 85.239288,37.421364 
	C84.950287,41.434410 84.677284,45.225288 84.075188,49.895794 
	C83.773071,57.595600 83.470947,65.295403 83.025803,73.875717 
	C82.974228,76.251755 82.922646,78.627800 82.624512,81.462395 
	C82.651154,81.633881 82.677795,81.805374 82.365601,82.455788 
	C82.192757,83.217468 82.019913,83.979156 81.369865,84.899734 
	C81.250267,85.017227 81.130669,85.134720 80.371071,85.122459 
	C79.967163,84.960030 79.563263,84.797600 79.127029,83.744843 
	C79.127029,68.226433 79.127029,52.708027 79.127029,37.328300 
	C75.430634,37.328300 73.036560,37.328300 69.177284,37.328300 
	C69.177284,47.795372 69.177284,57.898495 69.026360,68.918404 
	C68.147781,78.189156 69.202705,87.716202 65.450790,96.762970 
	C64.022621,94.672470 63.237976,92.576622 63.030056,90.425041 
	C62.275051,82.612083 61.713257,74.780457 61.003891,66.296333 
	C60.947803,65.858780 60.891720,65.421219 60.974590,64.054741 
	C60.917156,58.048595 60.859726,52.042454 60.915604,45.140526 
	C60.915604,42.540543 60.915604,39.940559 60.915604,37.211040 
	C57.659447,37.211040 55.248547,37.211040 52.255157,37.211040 
	C52.255157,39.584400 52.266338,41.705711 52.253315,43.826874 
	C52.177982,56.096352 52.144314,68.366493 51.965057,80.634483 
	C51.939148,82.407356 53.128681,85.534660 49.048954,84.114601 
	C48.814690,83.545769 48.580425,82.976944 48.464802,82.148346 
	C48.464802,82.148346 48.228695,81.987701 48.327229,81.057320 
	C47.595982,70.022354 46.864738,58.987396 46.290550,47.049896 
	C46.113735,43.763779 45.936920,40.477661 45.699764,36.070129 
	C43.078861,37.245163 40.782867,37.738640 39.244610,39.092850 
	C37.070168,41.007122 35.455536,43.557285 33.029789,46.036816 
	C31.843178,47.132328 30.656569,48.227840 28.907814,49.730282 
	C27.283201,51.751766 24.419018,53.675087 24.249809,55.811825 
	C23.539421,64.782570 22.243494,74.274712 32.185429,80.662102 
	C37.234032,85.389214 42.282635,90.116325 47.683907,95.360168 
	C49.101910,96.633698 50.519917,97.907219 52.066422,99.618507 
	C52.244949,99.896545 52.499084,100.046120 53.144333,100.665665 
	C57.182194,104.322975 61.220055,107.980293 65.893478,112.213280 
	C79.307938,99.107590 92.418976,86.406830 105.327316,73.503304 
	C106.495697,72.335358 106.358788,69.861633 106.969231,67.087708 
	C106.921806,63.721031 106.874374,60.354359 106.953804,56.368790 
	C106.757599,55.796597 106.561394,55.224403 106.428787,54.675594 
	C106.428787,54.675594 106.436440,54.608261 106.310463,54.222668 
z"/>
<path fill="#832963" opacity="1.000000" stroke="none" 
	d="
M103.010345,94.415550 
	C103.790688,93.376976 104.570297,92.707565 105.641182,91.933067 
	C106.650543,94.172226 106.821205,96.269516 103.330414,96.931717 
	C103.003342,96.261162 103.006477,95.522934 103.010345,94.415550 
z"/>
<path fill="#834A6C" opacity="1.000000" stroke="none" 
	d="
M119.320374,80.989929 
	C119.229637,80.576134 119.459732,80.160919 119.917572,79.626678 
	C120.278961,79.741158 120.412598,79.974663 120.732513,80.564545 
	C120.492928,80.943451 120.067070,80.965973 119.320374,80.989929 
z"/>
<path fill="#714054" opacity="1.000000" stroke="none" 
	d="
M10.081535,79.106140 
	C12.115545,80.387604 14.126705,82.051376 16.328609,83.963531 
	C13.520724,85.583878 11.644968,84.361107 10.222403,81.301331 
	C10.021014,80.509781 10.039849,79.999115 10.081535,79.106140 
z"/>
<path fill="#714054" opacity="1.000000" stroke="none" 
	d="
M16.769663,84.732330 
	C17.499249,85.049873 18.225719,85.695786 19.052067,86.624016 
	C18.356812,86.291122 17.561682,85.675911 16.769663,84.732330 
z"/>
<path fill="#714054" opacity="1.000000" stroke="none" 
	d="
M19.189907,87.048943 
	C19.059586,86.833664 19.539482,86.956703 19.764385,87.060303 
	C19.989286,87.163910 19.990164,87.587929 19.989201,87.800049 
	C19.765568,87.762848 19.542898,87.513535 19.189907,87.048943 
z"/>
<path fill="#834A6C" opacity="1.000000" stroke="none" 
	d="
M120.829613,79.228394 
	C120.987236,77.140724 121.866081,75.129280 121.991127,73.072006 
	C122.664268,61.997875 123.150131,50.912357 123.842850,39.449947 
	C124.324524,41.412865 124.663986,43.756607 125.008270,46.517189 
	C124.666962,55.687950 124.478577,64.453056 123.859558,73.187637 
	C123.711845,75.271873 122.126862,77.254242 120.829613,79.228394 
z"/>
<path fill="#6D3D4F" opacity="1.000000" stroke="none" 
	d="
M4.751504,18.003601 
	C6.710888,23.531582 5.728633,30.038471 11.960313,33.759380 
	C15.664276,35.971004 20.825861,35.485878 23.598507,31.813896 
	C25.525454,29.261925 24.366316,23.360884 21.474066,21.073627 
	C20.972502,20.676981 20.417820,20.347500 18.885281,19.305357 
	C20.720274,18.406004 22.441782,17.032394 22.974306,17.396715 
	C24.870386,18.693897 27.484167,20.393641 27.801779,22.281557 
	C28.869209,28.626495 28.838852,34.919418 21.549971,38.359520 
	C19.213181,39.462406 17.304640,41.472664 15.210995,43.059582 
	C12.584003,41.220276 10.181575,39.538197 7.434848,37.949829 
	C8.534312,35.653957 7.709618,33.958000 6.428383,31.480530 
	C4.476320,27.705908 4.070725,23.131525 3.010216,18.459568 
	C3.475836,18.016598 3.939663,18.010820 4.751504,18.003601 
z"/>
<path fill="#714054" opacity="1.000000" stroke="none" 
	d="
M6.788634,38.164276 
	C7.718372,50.736507 8.358281,63.401157 8.993330,76.531464 
	C8.020335,75.825439 6.268118,74.692970 6.207245,73.475906 
	C5.687542,63.085258 5.423078,52.680202 5.233965,42.276695 
	C5.209754,40.944798 6.055874,39.597076 6.788634,38.164276 
z"/>
<path fill="#8C436B" opacity="1.000000" stroke="none" 
	d="
M71.155388,20.012287 
	C71.079041,19.280275 71.002693,18.548264 71.066956,17.232401 
	C71.222778,14.785698 71.237999,12.922845 71.342377,10.736189 
	C71.894897,8.690355 72.358253,6.968324 72.821617,5.246294 
	C75.663536,8.069122 78.520813,6.785722 81.694534,5.135302 
	C85.434914,7.107893 88.859688,9.223469 93.260658,11.942065 
	C96.312195,10.281207 100.417404,7.482783 104.938339,5.803673 
	C107.535477,4.839077 110.839676,5.433752 113.762329,5.813381 
	C115.652725,6.058928 117.428757,7.184939 119.624313,7.962221 
	C120.177811,8.263478 120.387978,8.496406 120.806931,8.854049 
	C120.993652,9.782623 120.996529,10.563969 121.000183,11.736006 
	C120.517685,12.090287 119.920052,12.226126 119.567871,11.992287 
	C110.736038,6.128305 108.244896,6.067046 99.520126,12.310364 
	C97.087334,14.051244 95.121086,16.444120 92.424576,18.909857 
	C89.622841,20.032080 88.104950,19.471161 87.807503,16.891548 
	C87.831673,16.916225 87.763802,16.905220 87.876831,16.825888 
	C88.201653,16.539162 88.242462,16.294903 88.112335,15.614412 
	C87.525017,10.430926 85.308670,8.914914 78.987885,9.428066 
	C78.864540,13.028836 78.987755,16.343958 79.110962,19.659077 
	C78.844032,20.238501 78.577110,20.817926 77.879959,21.811596 
	C76.376366,23.030933 75.303009,23.836027 74.374634,24.532373 
	C73.117485,22.767229 72.136436,21.389757 71.155388,20.012287 
z"/>
<path fill="#713C4C" opacity="1.000000" stroke="none" 
	d="
M28.871658,9.888202 
	C26.411873,9.301825 23.974731,8.369802 21.260328,6.970939 
	C20.983067,6.504097 20.974989,6.014284 20.974989,6.014284 
	C23.080956,6.327035 25.186922,6.639786 27.650633,6.976557 
	C28.303686,7.847903 28.598995,8.695230 28.871658,9.888202 
z"/>
<path fill="#6D3D4F" opacity="1.000000" stroke="none" 
	d="
M18.144230,7.056848 
	C15.962891,8.818221 13.471040,10.452452 10.671501,12.227898 
	C10.273172,11.845681 10.182531,11.322250 10.044590,10.403367 
	C10.185926,9.747640 10.399104,9.509315 11.098170,9.079443 
	C12.039800,8.579785 12.520082,8.293629 13.000364,8.007472 
	C14.611483,7.648217 16.222601,7.288961 18.144230,7.056848 
z"/>
<path fill="#713C4C" opacity="1.000000" stroke="none" 
	d="
M12.800249,7.879392 
	C12.520082,8.293629 12.039800,8.579785 11.283474,8.926758 
	C11.538332,8.575486 12.069233,8.163399 12.800249,7.879392 
z"/>
<path fill="#6D3D4F" opacity="1.000000" stroke="none" 
	d="
M20.702702,6.076192 
	C20.974989,6.014284 20.983067,6.504097 20.982922,6.748992 
	C20.544939,7.016778 20.107103,7.039670 19.341656,7.029134 
	C19.486170,6.709838 19.958292,6.423969 20.702702,6.076192 
z"/>
<path fill="#753E58" opacity="1.000000" stroke="none" 
	d="
M45.044979,23.091042 
	C45.044979,25.550600 45.044979,28.010159 45.044979,30.808319 
	C40.684944,31.535147 38.458649,29.709793 38.165909,25.411386 
	C38.019501,23.261600 38.082527,21.097549 38.161213,18.285027 
	C38.514435,17.082016 38.757275,16.533930 39.000114,15.985844 
	C39.969303,15.013267 40.938492,14.040688 42.245071,13.365015 
	C42.583160,14.106441 42.583862,14.550960 42.441372,15.055828 
	C42.486351,15.412224 42.674522,15.708270 43.056389,16.257244 
	C43.520855,17.293030 43.791622,18.075888 44.016991,19.148487 
	C44.329388,20.655836 44.687183,21.873438 45.044979,23.091042 
z"/>
<path fill="#FAF1F6" opacity="1.000000" stroke="none" 
	d="
M42.584564,14.995479 
	C42.583862,14.550960 42.583160,14.106441 42.565010,13.328466 
	C42.661873,12.857537 42.776184,12.720063 43.238693,12.174463 
	C44.754776,10.861516 45.922665,9.956695 47.090549,9.051874 
	C47.090549,9.051874 47.036873,9.004114 47.433693,9.032755 
	C48.885277,8.969482 49.940048,8.877570 50.994816,8.785658 
	C50.994816,8.785657 51.305939,9.052762 51.556465,9.471745 
	C51.635036,11.942526 51.463081,13.994325 51.061172,16.325605 
	C48.574940,17.356306 46.318665,18.107525 44.062389,18.858744 
	C43.791622,18.075888 43.520855,17.293030 43.047287,15.988354 
	C42.757843,15.309516 42.671204,15.152497 42.584564,14.995479 
z"/>
<path fill="#713C4C" opacity="1.000000" stroke="none" 
	d="
M38.706177,15.801994 
	C38.757275,16.533930 38.514435,17.082016 38.062019,17.848637 
	C36.536221,16.824579 35.219994,15.581985 33.711266,14.113750 
	C35.149925,14.464787 36.781086,15.041466 38.706177,15.801994 
z"/>
<path fill="#713C4C" opacity="1.000000" stroke="none" 
	d="
M33.226425,13.099610 
	C31.793535,12.531726 30.463642,11.601528 28.948986,10.419211 
	C30.285954,11.023828 31.807688,11.880563 33.226425,13.099610 
z"/>
<path fill="#744158" opacity="1.000000" stroke="none" 
	d="
M46.712212,9.055271 
	C45.922665,9.956695 44.754776,10.861516 43.303715,11.914280 
	C44.124981,11.061038 45.229427,10.059854 46.712212,9.055271 
z"/>
<path fill="#744158" opacity="1.000000" stroke="none" 
	d="
M50.972416,8.594316 
	C49.940048,8.877570 48.885277,8.969482 47.433437,9.068676 
	C48.127403,8.684135 49.218437,8.292313 50.608528,7.960255 
	C50.907585,8.020020 50.950016,8.402973 50.972416,8.594316 
z"/>
<path fill="#853F69" opacity="1.000000" stroke="none" 
	d="
M123.854294,37.574928 
	C122.478455,38.698963 121.077560,39.650616 119.545135,40.284054 
	C117.888855,40.968685 116.109695,41.356052 113.943268,41.380058 
	C113.169083,40.674828 112.835777,40.462624 112.502464,40.250420 
	C112.502464,40.250420 112.618111,40.370491 112.622589,40.117336 
	C114.044395,38.462132 115.461731,37.060078 116.879074,35.658031 
	C118.649696,34.310894 120.420319,32.963749 122.542465,31.576227 
	C123.186432,33.444702 123.478874,35.353554 123.854294,37.574928 
z"/>
<path fill="#81415F" opacity="1.000000" stroke="none" 
	d="
M51.291122,16.046124 
	C51.463081,13.994325 51.635036,11.942526 51.759911,9.497146 
	C53.665760,7.832026 55.618690,6.560486 57.890907,5.540393 
	C58.714558,7.542163 59.218918,9.292487 59.528278,11.217969 
	C59.892757,13.222257 60.452229,15.051389 61.011703,16.880520 
	C60.517944,21.320082 60.024185,25.759642 59.480904,30.644463 
	C57.646931,30.644463 55.310455,30.644463 52.392246,30.644463 
	C52.392246,27.135401 52.392246,23.707575 52.181709,19.636759 
	C51.744492,18.011219 51.517807,17.028671 51.291122,16.046124 
z"/>
<path fill="#F8EEF4" opacity="1.000000" stroke="none" 
	d="
M59.723274,11.042812 
	C59.218918,9.292487 58.714558,7.542163 58.230255,5.444694 
	C58.536518,5.088343 58.776558,4.978379 59.057976,4.585473 
	C63.072712,4.294822 66.999908,4.186353 71.312271,4.162735 
	C71.697433,4.247587 71.828712,4.154334 71.876732,4.390025 
	C72.282623,4.826199 72.640495,5.026681 72.998367,5.227163 
	C72.998367,5.227162 72.900406,5.148155 72.861008,5.197225 
	C72.358253,6.968324 71.894897,8.690355 71.145256,10.941590 
	C70.547546,11.936383 70.236122,12.401972 69.564598,13.011254 
	C65.641174,14.259564 62.245125,14.613304 59.723274,11.042812 
z"/>
<path fill="#81415F" opacity="1.000000" stroke="none" 
	d="
M72.797180,5.016521 
	C72.640495,5.026681 72.282623,4.826199 71.830551,4.324074 
	C72.022888,4.283580 72.309441,4.544729 72.797180,5.016521 
z"/>
<path fill="#6D3D4F" opacity="1.000000" stroke="none" 
	d="
M10.048841,12.391947 
	C9.847959,12.933617 9.322960,13.507972 8.525498,14.193636 
	C8.743599,13.678175 9.234162,13.051404 10.048841,12.391947 
z"/>
<path fill="#6D3D4F" opacity="1.000000" stroke="none" 
	d="
M7.970427,14.332479 
	C7.782087,14.914742 7.255586,15.574736 6.454152,16.399292 
	C6.663568,15.845973 7.147917,15.128090 7.970427,14.332479 
z"/>
<path fill="#832E62" opacity="1.000000" stroke="none" 
	d="
M82.871071,81.003838 
	C82.922646,78.627800 82.974228,76.251755 83.402679,73.436188 
	C84.186722,72.995644 84.593887,72.994614 85.314117,73.138870 
	C86.000275,74.116203 86.719162,74.959343 86.692871,75.778572 
	C86.436401,83.771019 86.430107,83.794861 93.802216,82.259552 
	C86.258339,89.389709 79.014267,96.379906 71.454468,103.010109 
	C67.612801,106.379356 62.644283,105.810631 58.955288,102.271912 
	C57.883404,101.243698 56.947475,100.073738 55.814407,98.688110 
	C54.793343,97.610664 53.907097,96.813858 52.895855,95.712624 
	C51.842079,94.930977 50.913303,94.453758 49.889458,93.697189 
	C49.202061,92.952148 48.609734,92.486458 47.733612,91.918793 
	C46.976685,91.210762 46.503551,90.604713 46.207993,89.729012 
	C47.039101,87.108940 47.692631,84.758522 48.346161,82.408112 
	C48.580425,82.976944 48.814690,83.545769 49.160206,84.741302 
	C51.725250,88.297440 52.515163,85.580231 53.326786,84.020615 
	C54.293983,82.162041 55.116295,80.167633 55.607765,78.136826 
	C56.259232,75.444878 57.859352,75.330544 59.993340,76.438797 
	C60.061565,83.157959 57.832371,89.642525 61.601196,95.572182 
	C62.325649,96.711998 63.460232,98.511887 64.295494,98.452713 
	C65.676529,98.354881 67.831841,97.234840 68.144646,96.120079 
	C69.368195,91.759659 70.338547,87.264046 70.755508,82.758759 
	C71.208076,77.868813 70.940071,72.912178 70.986153,67.522018 
	C70.993637,64.408661 70.759781,61.725639 71.107925,59.120388 
	C71.289452,57.761971 72.496239,56.540558 73.239937,55.257263 
	C74.210709,56.342510 75.853355,57.329266 76.029518,58.530994 
	C76.618828,62.551105 76.737328,66.645515 76.932899,70.716431 
	C77.096733,74.127121 76.949646,77.561203 77.284828,80.950851 
	C77.411140,82.228256 78.506020,83.409882 79.159363,84.635170 
	C79.563263,84.797600 79.967163,84.960030 80.747665,85.338272 
	C81.365189,85.282997 81.606125,85.011917 81.847069,84.740837 
	C82.019913,83.979156 82.192757,83.217468 82.720612,82.195587 
	C83.007431,81.624878 82.939255,81.314354 82.871071,81.003838 
z"/>
<path fill="#803760" opacity="1.000000" stroke="none" 
	d="
M59.990654,75.993591 
	C57.859352,75.330544 56.259232,75.444878 55.607765,78.136826 
	C55.116295,80.167633 54.293983,82.162041 53.326786,84.020615 
	C52.515163,85.580231 51.725250,88.297440 49.189499,85.052933 
	C53.128681,85.534660 51.939148,82.407356 51.965057,80.634483 
	C52.144314,68.366493 52.177982,56.096352 52.253315,43.826874 
	C52.266338,41.705711 52.255157,39.584400 52.255157,37.211040 
	C55.248547,37.211040 57.659447,37.211040 60.915604,37.211040 
	C60.915604,39.940559 60.915604,42.540543 60.680466,45.955540 
	C60.575428,52.841591 60.705528,58.912628 60.835632,64.983665 
	C60.891720,65.421219 60.947803,65.858780 60.820572,66.963593 
	C60.421715,70.418427 60.206184,73.206009 59.990654,75.993591 
z"/>
<path fill="#8B3469" opacity="1.000000" stroke="none" 
	d="
M93.971413,81.970680 
	C86.430107,83.794861 86.436401,83.771019 86.692871,75.778572 
	C86.719162,74.959343 86.000275,74.116203 85.314255,72.765823 
	C85.003090,71.500992 85.004845,70.754509 85.311676,69.870148 
	C85.737770,68.154449 85.858788,66.576622 85.981750,64.531990 
	C85.989128,59.042343 85.994560,54.019493 86.005867,48.594227 
	C86.313911,45.351543 86.616081,42.511276 86.986198,39.032253 
	C88.701180,40.314606 89.854965,41.177338 90.822166,42.331299 
	C89.856613,46.370464 88.329681,50.149734 88.485054,53.858524 
	C88.686340,58.663448 89.732689,63.604233 91.465576,68.079849 
	C92.063438,69.623993 95.801674,70.524757 98.118950,70.551643 
	C99.058861,70.562561 100.439316,67.563934 100.917053,65.749809 
	C102.232956,60.752861 101.635895,56.029160 98.335785,51.716789 
	C97.649223,50.819630 98.194412,48.979843 98.171944,47.574471 
	C99.358643,48.167328 100.545349,48.760185 101.792984,49.940300 
	C102.880249,52.021416 103.906578,53.515278 105.310791,54.916409 
	C105.937927,54.751873 106.187180,54.680065 106.436440,54.608261 
	C106.436440,54.608261 106.428787,54.675594 106.305542,55.058189 
	C106.110634,55.972111 106.038963,56.503441 105.887604,57.406876 
	C105.858719,60.489822 105.909515,63.200657 105.765305,66.216042 
	C103.583130,69.624626 101.741623,72.835892 99.561073,75.797531 
	C97.923645,78.021492 95.850555,79.924690 93.971413,81.970680 
z"/>
<path fill="#91386D" opacity="1.000000" stroke="none" 
	d="
M98.077255,47.272011 
	C98.194412,48.979843 97.649223,50.819630 98.335785,51.716789 
	C101.635895,56.029160 102.232956,60.752861 100.917053,65.749809 
	C100.439316,67.563934 99.058861,70.562561 98.118950,70.551643 
	C95.801674,70.524757 92.063438,69.623993 91.465576,68.079849 
	C89.732689,63.604233 88.686340,58.663448 88.485054,53.858524 
	C88.329681,50.149734 89.856613,46.370464 91.093048,42.447014 
	C92.098587,42.492729 92.646667,42.713970 93.194740,42.935207 
	C93.194740,42.935207 93.089775,42.935932 93.150208,43.180573 
	C93.781815,43.934753 94.352997,44.444302 94.924179,44.953850 
	C95.943642,45.625748 96.963112,46.297649 98.077255,47.272011 
z"/>
<path fill="#833E66" opacity="1.000000" stroke="none" 
	d="
M79.143204,84.190002 
	C78.506020,83.409882 77.411140,82.228256 77.284828,80.950851 
	C76.949646,77.561203 77.096733,74.127121 76.932899,70.716431 
	C76.737328,66.645515 76.618828,62.551105 76.029518,58.530994 
	C75.853355,57.329266 74.210709,56.342510 73.239937,55.257263 
	C72.496239,56.540558 71.289452,57.761971 71.107925,59.120388 
	C70.759781,61.725639 70.993637,64.408661 70.684845,67.525360 
	C69.981529,67.994743 69.579407,67.998177 69.177284,68.001617 
	C69.177284,57.898495 69.177284,47.795372 69.177284,37.328300 
	C73.036560,37.328300 75.430634,37.328300 79.127029,37.328300 
	C79.127029,52.708027 79.127029,68.226433 79.143204,84.190002 
z"/>
<path fill="#74355B" opacity="1.000000" stroke="none" 
	d="
M93.802216,82.259552 
	C95.850555,79.924690 97.923645,78.021492 99.561073,75.797531 
	C101.741623,72.835892 103.583130,69.624626 105.826248,66.497147 
	C106.330833,66.980576 106.579437,67.487434 106.828049,67.994301 
	C106.358788,69.861633 106.495697,72.335358 105.327316,73.503304 
	C92.418976,86.406830 79.307938,99.107590 65.893478,112.213280 
	C61.220055,107.980293 57.182194,104.322975 53.288795,100.226753 
	C54.271912,99.514809 55.110569,99.241783 55.949226,98.968750 
	C56.947475,100.073738 57.883404,101.243698 58.955288,102.271912 
	C62.644283,105.810631 67.612801,106.379356 71.454468,103.010109 
	C79.014267,96.379906 86.258339,89.389709 93.802216,82.259552 
z"/>
<path fill="#76355C" opacity="1.000000" stroke="none" 
	d="
M69.101822,68.460007 
	C69.579407,67.998177 69.981529,67.994743 70.684967,67.987961 
	C70.940071,72.912178 71.208076,77.868813 70.755508,82.758759 
	C70.338547,87.264046 69.368195,91.759659 68.144646,96.120079 
	C67.831841,97.234840 65.676529,98.354881 64.295494,98.452713 
	C63.460232,98.511887 62.325649,96.711998 61.601196,95.572182 
	C57.832371,89.642525 60.061565,83.157959 59.993343,76.438797 
	C60.206184,73.206009 60.421715,70.418427 60.857918,67.293358 
	C61.713257,74.780457 62.275051,82.612083 63.030056,90.425041 
	C63.237976,92.576622 64.022621,94.672470 65.450790,96.762970 
	C69.202705,87.716202 68.147781,78.189156 69.101822,68.460007 
z"/>
<path fill="#7C4465" opacity="1.000000" stroke="none" 
	d="
M116.508125,35.758312 
	C115.461731,37.060078 114.044395,38.462132 112.559509,40.171822 
	C111.148132,39.507599 109.776482,38.571712 108.465355,37.557579 
	C103.129295,33.430237 100.970978,27.856071 103.286644,21.616467 
	C104.022957,19.632454 106.914078,17.905361 109.174187,17.202795 
	C110.955933,16.648933 113.282387,17.847397 115.198761,18.856430 
	C107.371483,21.517082 106.198036,22.757835 106.573563,28.451855 
	C106.828682,32.320385 110.330971,35.032799 116.508125,35.758312 
z"/>
<path fill="#723E59" opacity="1.000000" stroke="none" 
	d="
M31.995594,80.014694 
	C22.243494,74.274712 23.539421,64.782570 24.249809,55.811825 
	C24.419018,53.675087 27.283201,51.751766 29.322536,49.698967 
	C29.737259,49.667652 30.008261,50.009045 29.921070,50.364571 
	C25.533199,56.994041 26.836641,64.055412 27.476791,70.840340 
	C27.651806,72.695312 30.420752,74.305542 32.003468,76.350479 
	C32.020279,77.102417 32.032944,77.531967 32.036655,78.303696 
	C32.017002,79.102150 32.006298,79.558418 31.995594,80.014694 
z"/>
<path fill="#803760" opacity="1.000000" stroke="none" 
	d="
M48.405479,82.278229 
	C47.692631,84.758522 47.039101,87.108940 45.922951,89.548859 
	C43.638897,87.426582 41.817463,85.214790 40.186821,82.691620 
	C41.925514,78.581100 43.473419,74.781982 45.221542,71.308472 
	C46.357410,75.085297 47.293053,78.536499 48.228695,81.987701 
	C48.228695,81.987701 48.464802,82.148346 48.405479,82.278229 
z"/>
<path fill="#7B3E5E" opacity="1.000000" stroke="none" 
	d="
M48.277962,81.522507 
	C47.293053,78.536499 46.357410,75.085297 45.217461,70.882034 
	C45.012939,68.420166 45.012722,66.710350 45.217041,64.668282 
	C44.946472,59.890717 44.471363,55.445415 43.998734,50.623116 
	C44.013954,49.491711 44.026695,48.737301 44.388489,47.980930 
	C45.202858,47.970123 45.668175,47.961277 46.133492,47.952435 
	C46.864738,58.987396 47.595982,70.022354 48.277962,81.522507 
z"/>
<path fill="#833D63" opacity="1.000000" stroke="none" 
	d="
M87.783333,16.866871 
	C88.104950,19.471161 89.622841,20.032080 92.275459,19.199465 
	C92.691505,21.511795 92.740448,23.906483 92.546097,26.800728 
	C92.157333,27.477753 92.059906,27.678545 92.010551,27.902664 
	C90.631721,28.763235 89.252899,29.623808 87.631905,30.635525 
	C86.715561,27.547403 86.018333,25.197702 85.128708,22.164780 
	C84.955841,20.719196 84.975365,19.956835 85.295883,19.110699 
	C86.325699,18.306906 87.054512,17.586887 87.783333,16.866871 
z"/>
<path fill="#74355B" opacity="1.000000" stroke="none" 
	d="
M39.996029,83.003006 
	C41.817463,85.214790 43.638897,87.426582 45.745373,89.818520 
	C46.503551,90.604713 46.976685,91.210762 47.735863,92.239090 
	C48.034019,93.088165 48.046131,93.514969 47.875099,94.166061 
	C47.571716,94.541382 47.451477,94.692413 47.331238,94.843437 
	C42.282635,90.116325 37.234032,85.389214 32.090511,80.338394 
	C32.006298,79.558418 32.017002,79.102150 32.322865,78.455673 
	C34.078701,79.492279 35.539383,80.719078 37.311604,82.013191 
	C38.414108,82.388000 39.205070,82.695503 39.996029,83.003006 
z"/>
<path fill="#6F3A51" opacity="1.000000" stroke="none" 
	d="
M46.212021,47.501167 
	C45.668175,47.961277 45.202858,47.970123 44.432930,47.642151 
	C44.019848,44.988129 43.911377,42.670918 43.763149,39.504425 
	C40.310719,42.081463 37.669670,44.052853 34.672142,45.975029 
	C34.077644,45.895752 33.839630,45.865692 33.601612,45.835632 
	C35.455536,43.557285 37.070168,41.007122 39.244610,39.092850 
	C40.782867,37.738640 43.078861,37.245163 45.699764,36.070129 
	C45.936920,40.477661 46.113735,43.763779 46.212021,47.501167 
z"/>
<path fill="#7E395D" opacity="1.000000" stroke="none" 
	d="
M71.091331,20.453903 
	C72.136436,21.389757 73.117485,22.767229 74.374634,24.532373 
	C75.303009,23.836027 76.376366,23.030933 77.761536,22.114296 
	C77.631981,24.443953 77.391945,26.952976 76.608391,29.278900 
	C76.411339,29.863823 74.196083,30.402355 73.402039,29.996428 
	C72.348618,29.457905 71.331627,28.057266 71.104591,26.872684 
	C70.735374,24.946119 71.019119,22.894411 71.091331,20.453903 
z"/>
<path fill="#77365D" opacity="1.000000" stroke="none" 
	d="
M86.000000,48.996643 
	C85.994560,54.019493 85.989128,59.042343 85.782425,64.840202 
	C85.389648,67.079483 85.198128,68.543747 85.006607,70.008018 
	C85.004845,70.754509 85.003090,71.500992 85.001190,72.620529 
	C84.593887,72.994614 84.186722,72.995644 83.474190,72.995941 
	C83.470947,65.295403 83.773071,57.595600 84.505707,49.458519 
	C85.290817,49.013046 85.645409,49.004845 86.000000,48.996643 
z"/>
<path fill="#793F5F" opacity="1.000000" stroke="none" 
	d="
M86.005875,48.594227 
	C85.645409,49.004845 85.290817,49.013046 84.670258,49.018707 
	C84.677284,45.225288 84.950287,41.434410 85.239288,37.421364 
	C89.668030,36.128162 92.189598,37.726807 93.105362,42.567085 
	C92.646667,42.713970 92.098587,42.492729 91.279633,42.155777 
	C89.854965,41.177338 88.701180,40.314606 86.986198,39.032253 
	C86.616081,42.511276 86.313911,45.351543 86.005875,48.594227 
z"/>
<path fill="#763C5C" opacity="1.000000" stroke="none" 
	d="
M59.528282,11.217968 
	C62.245125,14.613304 65.641174,14.259564 69.541733,13.300229 
	C69.911873,14.575654 69.944778,15.705796 69.977684,16.835939 
	C67.240875,16.867672 64.504066,16.899405 61.389481,16.905828 
	C60.452229,15.051389 59.892757,13.222257 59.528282,11.217968 
z"/>
<path fill="#744158" opacity="1.000000" stroke="none" 
	d="
M51.061169,16.325605 
	C51.517807,17.028671 51.744492,18.011219 51.973839,19.302971 
	C49.876694,20.674616 47.776878,21.737059 45.361023,22.945271 
	C44.687183,21.873438 44.329388,20.655836 44.016991,19.148487 
	C46.318665,18.107525 48.574940,17.356306 51.061169,16.325605 
z"/>
<path fill="#7D4A64" opacity="1.000000" stroke="none" 
	d="
M84.994881,19.194473 
	C84.975365,19.956835 84.955841,20.719196 84.914490,21.862057 
	C83.186913,21.459883 81.481171,20.677208 79.443199,19.776806 
	C78.987755,16.343958 78.864540,13.028836 78.957184,9.833758 
	C77.900360,15.058477 80.921631,17.457861 84.994881,19.194473 
z"/>
<path fill="#76355C" opacity="1.000000" stroke="none" 
	d="
M60.905109,64.519203 
	C60.705528,58.912628 60.575428,52.841591 60.623810,46.403431 
	C60.859726,52.042454 60.917156,58.048595 60.905109,64.519203 
z"/>
<path fill="#74355B" opacity="1.000000" stroke="none" 
	d="
M49.984531,93.976532 
	C50.913303,94.453758 51.842079,94.930977 52.825340,96.039948 
	C52.565857,97.508049 52.251888,98.344398 51.937920,99.180740 
	C50.519917,97.907219 49.101910,96.633698 47.507572,95.101807 
	C47.451477,94.692413 47.571716,94.541382 48.195396,94.178421 
	C49.127403,93.969826 49.555965,93.973175 49.984531,93.976532 
z"/>
<path fill="#7D4165" opacity="1.000000" stroke="none" 
	d="
M106.898636,67.541000 
	C106.579437,67.487434 106.330833,66.980576 106.021271,66.192596 
	C105.909515,63.200657 105.858719,60.489822 106.102615,57.393288 
	C106.397308,57.007591 106.826950,56.987682 106.826950,56.987682 
	C106.874374,60.354359 106.921806,63.721031 106.898636,67.541000 
z"/>
<path fill="#723E59" opacity="1.000000" stroke="none" 
	d="
M33.315701,45.936226 
	C33.839630,45.865692 34.077644,45.895752 34.582649,46.310188 
	C33.235847,47.799389 31.622053,48.904217 30.008259,50.009045 
	C30.008261,50.009045 29.737259,49.667652 29.603609,49.495502 
	C30.656569,48.227840 31.843178,47.132328 33.315701,45.936226 
z"/>
<path fill="#7D4165" opacity="1.000000" stroke="none" 
	d="
M104.932907,55.009140 
	C103.906578,53.515278 102.880249,52.021416 101.945297,50.256256 
	C103.279724,51.123417 104.522781,52.261883 105.680069,53.856384 
	C105.349228,54.521309 105.128769,54.753548 104.932907,55.009140 
z"/>
<path fill="#7E395D" opacity="1.000000" stroke="none" 
	d="
M70.185486,16.923792 
	C69.944778,15.705796 69.911873,14.575654 69.901833,13.156536 
	C70.236122,12.401972 70.547546,11.936383 71.056091,11.265394 
	C71.237999,12.922845 71.222778,14.785698 71.023102,16.866280 
	C70.838646,17.084009 70.393280,17.011644 70.185486,16.923792 
z"/>
<path fill="#803760" opacity="1.000000" stroke="none" 
	d="
M52.002174,99.399628 
	C52.251888,98.344398 52.565857,97.508049 52.950340,96.344376 
	C53.907097,96.813858 54.793343,97.610664 55.814407,98.688110 
	C55.110569,99.241783 54.271912,99.514809 53.131042,99.927536 
	C52.499084,100.046120 52.244949,99.896545 52.002174,99.399628 
z"/>
<path fill="#793F5F" opacity="1.000000" stroke="none" 
	d="
M94.979401,44.616959 
	C94.352997,44.444302 93.781815,43.934753 93.151192,43.128094 
	C93.739380,43.314007 94.387001,43.797035 94.979401,44.616959 
z"/>
<path fill="#833E66" opacity="1.000000" stroke="none" 
	d="
M82.747787,81.233116 
	C82.939255,81.314354 83.007431,81.624878 82.890022,81.956131 
	C82.677795,81.805374 82.651154,81.633881 82.747787,81.233116 
z"/>
<path fill="#833E66" opacity="1.000000" stroke="none" 
	d="
M81.608467,84.820282 
	C81.606125,85.011917 81.365189,85.282997 81.067657,85.403152 
	C81.130669,85.134720 81.250267,85.017227 81.608467,84.820282 
z"/>
<path fill="#74355B" opacity="1.000000" stroke="none" 
	d="
M106.890381,56.678238 
	C106.826950,56.987682 106.397308,57.007591 106.182297,57.021179 
	C106.038963,56.503441 106.110634,55.972111 106.273743,55.046497 
	C106.561394,55.224403 106.757599,55.796597 106.890381,56.678238 
z"/>
<path fill="#8C436B" opacity="1.000000" stroke="none" 
	d="
M92.209221,27.860092 
	C92.059906,27.678545 92.157333,27.477753 92.427185,27.187021 
	C92.695122,27.358667 92.647232,27.606588 92.209221,27.860092 
z"/>
<path fill="#7C4465" opacity="1.000000" stroke="none" 
	d="
M112.646423,40.526810 
	C112.835777,40.462624 113.169083,40.674828 113.700554,41.105293 
	C113.529274,41.150101 113.159821,40.976650 112.646423,40.526810 
z"/>
<path fill="#74355B" opacity="1.000000" stroke="none" 
	d="
M105.310791,54.916405 
	C105.128769,54.753548 105.349228,54.521309 105.780136,54.160538 
	C105.965996,54.008656 106.310463,54.222668 106.373451,54.415466 
	C106.187180,54.680065 105.937927,54.751873 105.310791,54.916405 
z"/>
<path fill="#FAF1F7" opacity="1.000000" stroke="none" 
	d="
M85.295883,19.110699 
	C80.921631,17.457861 77.900360,15.058477 79.203735,9.548110 
	C85.308670,8.914914 87.525017,10.430926 87.989929,15.823494 
	C87.867477,16.431944 87.763802,16.905220 87.763802,16.905220 
	C87.763802,16.905220 87.831673,16.916225 87.807503,16.891548 
	C87.054512,17.586887 86.325699,18.306906 85.295883,19.110699 
z"/>
<path fill="#833D63" opacity="1.000000" stroke="none" 
	d="
M87.876831,16.825888 
	C87.763802,16.905220 87.867477,16.431944 87.989883,16.222862 
	C88.242462,16.294903 88.201653,16.539162 87.876831,16.825888 
z"/>
<path fill="#744158" opacity="1.000000" stroke="none" 
	d="
M42.441372,15.055828 
	C42.671204,15.152497 42.757843,15.309516 42.853584,15.735425 
	C42.674522,15.708270 42.486351,15.412224 42.441372,15.055828 
z"/>
<path fill="#803760" opacity="1.000000" stroke="none" 
	d="
M49.889458,93.697189 
	C49.555965,93.973175 49.127403,93.969826 48.378540,93.954117 
	C48.046131,93.514969 48.034019,93.088165 48.019657,92.341072 
	C48.609734,92.486458 49.202061,92.952148 49.889458,93.697189 
z"/>
<path fill="#832E62" opacity="1.000000" stroke="none" 
	d="
M85.311676,69.870148 
	C85.198128,68.543747 85.389648,67.079483 85.780479,65.306999 
	C85.858788,66.576622 85.737770,68.154449 85.311676,69.870148 
z"/>
<path fill="#84365E" opacity="1.000000" stroke="none" 
	d="
M29.921070,50.364571 
	C31.622053,48.904217 33.235847,47.799389 34.939133,46.359402 
	C37.669670,44.052853 40.310719,42.081463 43.763149,39.504425 
	C43.911377,42.670918 44.019848,44.988129 44.083878,47.644119 
	C44.026695,48.737301 44.013954,49.491711 43.675171,50.779968 
	C41.003880,56.228470 43.184647,60.593060 45.012505,65.000542 
	C45.012722,66.710350 45.012939,68.420166 45.017235,70.556412 
	C43.473419,74.781982 41.925514,78.581100 40.186821,82.691620 
	C39.205070,82.695503 38.414108,82.388000 37.308945,81.615967 
	C37.248859,77.572319 35.736115,75.715942 31.999315,76.028091 
	C30.420752,74.305542 27.651806,72.695312 27.476791,70.840340 
	C26.836641,64.055412 25.533199,56.994041 29.921070,50.364571 
z"/>
<path fill="#803760" opacity="1.000000" stroke="none" 
	d="
M32.003468,76.350479 
	C35.736115,75.715942 37.248859,77.572319 36.997406,81.548660 
	C35.539383,80.719078 34.078701,79.492279 32.331814,78.113495 
	C32.032944,77.531967 32.020279,77.102417 32.003468,76.350479 
z"/>
<path fill="#803760" opacity="1.000000" stroke="none" 
	d="
M45.217041,64.668282 
	C43.184647,60.593060 41.003880,56.228470 43.672691,51.156967 
	C44.471363,55.445415 44.946472,59.890717 45.217041,64.668282 
z"/>
</svg>