<svg version="1.1" id="Layer_1" xmlns="http://www.w3.org/2000/svg" xmlns:xlink="http://www.w3.org/1999/xlink" x="0px" y="0px"
	 width="100%" viewBox="0 0 128 128" enable-background="new 0 0 128 128" xml:space="preserve">
<path fill="#7789AB" opacity="1.000000" stroke="none" 
	d="
M57.000000,129.000000 
	C38.402222,129.000000 19.804443,129.000000 1.000000,129.000000 
	C1.000000,108.312897 1.000000,87.625107 1.355897,66.534927 
	C2.853564,67.784851 4.387619,69.291817 5.063733,71.116653 
	C7.112688,76.646790 14.098026,81.076866 18.366833,79.036545 
	C19.889011,79.854774 21.106297,80.577309 22.193600,81.459969 
	C24.825068,83.596161 27.395943,85.806992 29.856983,88.345505 
	C29.834234,92.410225 29.652254,96.159691 30.180338,99.806320 
	C30.446737,101.645920 31.999783,103.299202 33.100410,105.198608 
	C33.411285,105.569458 33.603188,105.768394 33.885635,106.240005 
	C33.976974,106.718262 33.988167,106.913834 34.013229,107.329979 
	C34.027100,107.550560 33.986862,107.991158 33.969372,108.015686 
	C33.951881,108.040207 34.007782,108.012375 34.398178,108.006500 
	C35.569302,108.018326 36.350025,108.036011 37.083092,108.435059 
	C37.031406,110.088013 37.027382,111.359619 37.175980,112.978378 
	C38.001396,117.152428 39.924168,119.100609 44.089500,118.105423 
	C45.324146,117.810448 46.685932,118.047615 48.137680,118.313667 
	C49.157608,119.073685 50.029305,119.560966 50.921692,120.369080 
	C50.972599,121.117188 51.002811,121.544464 51.125816,122.302704 
	C53.145737,124.755775 55.072868,126.877884 57.000000,129.000000 
z"/>
<path fill="#687BA5" opacity="1.000000" stroke="none" 
	d="
M129.000000,108.000000 
	C129.000000,114.901283 129.000000,121.802559 129.000000,129.000000 
	C125.324608,129.000000 121.641479,129.000000 117.462097,128.600006 
	C116.116646,125.366394 115.465393,122.452980 114.364326,119.720848 
	C113.189079,116.804642 111.446693,114.120522 110.208160,111.225456 
	C108.406273,107.013542 104.333237,105.966019 101.100929,109.200447 
	C98.618568,111.684433 96.361168,114.393219 94.001297,116.752357 
	C93.998863,116.502670 93.993515,116.003357 94.020081,115.656197 
	C94.401291,112.331635 93.487038,108.914230 96.944702,106.668274 
	C97.023369,105.883423 97.083084,105.436577 97.489868,104.921585 
	C101.759254,103.125763 101.343140,100.186584 100.042595,96.649162 
	C100.368576,95.214050 100.682747,94.126915 101.247871,93.101814 
	C102.294342,92.422195 103.127579,91.716606 103.878052,90.931870 
	C105.832993,88.887711 107.632607,88.760277 109.797043,90.828278 
	C113.548401,94.412521 117.490059,97.798042 121.363777,101.253593 
	C123.898346,103.514542 126.453865,105.752014 129.000000,108.000000 
z"/>
<path fill="#717BA2" opacity="1.000000" stroke="none" 
	d="
M1.000000,22.000000 
	C1.000000,15.666667 0.939349,9.331912 1.087699,3.002055 
	C1.103681,2.320139 2.333333,1.666667 3.542615,1.357276 
	C5.028902,3.209465 5.725307,4.961923 6.963187,6.150397 
	C10.499252,9.545333 14.720454,12.349161 14.762506,18.091684 
	C14.768623,18.926908 16.117430,19.770884 16.879286,20.578396 
	C18.912777,22.733753 20.964981,24.871458 22.826588,27.297560 
	C19.988667,31.970755 21.703531,42.011349 25.882399,47.440590 
	C24.910103,53.636883 24.022533,59.431873 23.079273,65.159248 
	C23.023579,65.091637 23.158907,64.980392 22.966652,65.168816 
	C22.509893,65.597878 22.245386,65.838509 22.032284,66.038704 
	C22.083691,65.998260 22.164625,66.101036 21.825352,66.102020 
	C20.336983,66.687149 19.187883,67.271309 17.690971,67.915741 
	C16.234228,68.276733 15.125297,68.577431 14.054827,68.546738 
	C15.062581,66.810364 16.031874,65.405388 17.334419,63.898418 
	C24.668865,59.254925 24.570993,43.249168 17.622919,37.829670 
	C15.582132,36.237850 13.963449,34.115276 12.071187,32.320423 
	C8.410886,28.848553 4.693641,25.436720 1.000000,22.000000 
z"/>
<path fill="#566190" opacity="1.000000" stroke="none" 
	d="
M68.000000,1.000000 
	C71.692909,1.000000 75.385818,1.000000 79.580711,1.385534 
	C81.296646,14.206704 92.233597,19.485846 99.243095,27.054281 
	C96.566528,29.242582 94.271446,31.118986 91.569046,32.999416 
	C86.294678,34.123508 81.994217,32.787704 77.942337,29.627411 
	C74.559143,21.181509 71.268120,13.083106 67.978378,4.586233 
	C67.986435,3.125175 67.993217,2.062587 68.000000,1.000000 
z"/>
<path fill="#4C5C8F" opacity="1.000000" stroke="none" 
	d="
M129.000000,29.000000 
	C129.000000,32.692909 129.000000,36.385818 128.611588,40.523872 
	C124.556320,39.235386 120.740555,37.752773 117.267525,35.692421 
	C114.233330,33.892406 112.089317,32.167126 110.324860,37.166225 
	C109.305267,40.054955 106.834747,42.431568 105.050385,44.648506 
	C106.149094,40.656990 107.333900,37.085300 108.239761,33.444210 
	C108.879654,30.872150 109.167671,28.186672 105.002579,28.635284 
	C103.333046,23.671169 101.898163,18.933779 99.848999,14.478951 
	C98.309723,11.132594 95.981346,8.149219 94.332016,5.102390 
	C101.725105,10.252873 108.749367,15.364067 115.871140,20.335573 
	C120.169128,23.335886 124.618599,26.119184 129.000000,29.000000 
z"/>
<path fill="#6A729E" opacity="1.000000" stroke="none" 
	d="
M17.000000,1.000000 
	C21.689255,1.000000 26.378511,1.000000 31.576786,1.358077 
	C38.391716,10.145829 44.697628,18.575504 50.882790,27.273218 
	C50.178238,28.035103 49.594437,28.528950 48.634056,29.112602 
	C42.481773,31.001356 36.705822,32.821854 31.317680,28.868355 
	C36.135647,26.833158 36.485813,25.583811 33.531254,22.132448 
	C28.736336,16.531275 23.905626,10.959255 19.209267,5.276386 
	C18.210455,4.067765 17.723030,2.436529 17.000000,1.000000 
z"/>
<path fill="#7785AA" opacity="1.000000" stroke="none" 
	d="
M17.001167,64.000412 
	C16.031874,65.405388 15.062581,66.810364 13.769510,68.669098 
	C12.650274,70.053391 11.854815,70.983917 11.161364,72.238548 
	C13.509856,74.712990 15.756340,76.863342 18.002823,79.013687 
	C14.098026,81.076866 7.112688,76.646790 5.063733,71.116653 
	C4.387619,69.291817 2.853564,67.784851 1.355897,66.066269 
	C1.000000,58.979053 1.000000,51.958103 1.365627,44.513985 
	C3.997610,45.062637 6.211553,46.189091 8.539812,46.978294 
	C16.652157,49.728111 19.352280,54.494053 17.205967,62.520611 
	C17.078314,62.997997 17.066753,63.506428 17.001167,64.000412 
z"/>
<path fill="#7481A6" opacity="1.000000" stroke="none" 
	d="
M17.334421,63.898418 
	C17.066753,63.506428 17.078314,62.997997 17.205967,62.520611 
	C19.352280,54.494053 16.652157,49.728111 8.539812,46.978294 
	C6.211553,46.189091 3.997610,45.062637 1.365627,44.045406 
	C1.000000,36.979053 1.000000,29.958105 1.000000,22.468578 
	C4.693641,25.436720 8.410886,28.848553 12.071187,32.320423 
	C13.963449,34.115276 15.582132,36.237850 17.622919,37.829670 
	C24.570993,43.249168 24.668865,59.254925 17.334421,63.898418 
z"/>
<path fill="#6275A1" opacity="1.000000" stroke="none" 
	d="
M129.000000,107.531601 
	C126.453865,105.752014 123.898346,103.514542 121.363777,101.253593 
	C117.490059,97.798042 113.548401,94.412521 109.797043,90.828278 
	C107.632607,88.760277 105.832993,88.887711 103.878052,90.931870 
	C103.127579,91.716606 102.294342,92.422195 101.253929,92.696533 
	C100.849159,84.059288 107.435188,82.001083 113.397919,79.008301 
	C116.075966,80.179749 118.410774,81.238907 120.596169,82.547554 
	C123.459175,84.261963 126.204216,86.173340 129.000000,88.000000 
	C129.000000,94.354401 129.000000,100.708794 129.000000,107.531601 
z"/>
<path fill="#49568B" opacity="1.000000" stroke="none" 
	d="
M129.000000,28.541931 
	C124.618599,26.119184 120.169128,23.335886 115.871140,20.335573 
	C108.749367,15.364067 101.725105,10.252873 94.329468,4.850167 
	C93.997719,4.331690 93.996269,4.163575 93.996117,3.621094 
	C93.998268,2.497819 93.999130,1.748909 94.000000,1.000000 
	C100.021156,1.000000 106.042305,1.000000 112.617264,1.343603 
	C116.417213,9.094748 121.148926,15.060793 129.000000,18.000000 
	C129.000000,21.361288 129.000000,24.722574 129.000000,28.541931 
z"/>
<path fill="#566899" opacity="1.000000" stroke="none" 
	d="
M129.000000,54.000000 
	C129.000000,58.025181 129.000000,62.050365 128.644806,66.460152 
	C124.045486,65.202881 121.159622,67.988449 117.747177,69.798965 
	C111.346741,65.976723 105.054329,62.489113 105.308075,53.877319 
	C107.211876,51.885235 109.078743,50.195450 110.346992,48.136868 
	C112.193138,45.140247 113.804665,45.018974 116.694969,47.027378 
	C120.550186,49.706272 124.876198,51.707634 129.000000,54.000000 
z"/>
<path fill="#6F77A0" opacity="1.000000" stroke="none" 
	d="
M16.536816,1.000000 
	C17.723030,2.436529 18.210455,4.067765 19.209267,5.276386 
	C23.905626,10.959255 28.736336,16.531275 33.531254,22.132448 
	C36.485813,25.583811 36.135647,26.833158 30.971519,28.731129 
	C27.872072,28.156694 25.440908,27.586437 23.009747,27.016180 
	C20.964981,24.871458 18.912777,22.733753 16.879286,20.578396 
	C16.117430,19.770884 14.768623,18.926908 14.762506,18.091684 
	C14.720454,12.349161 10.499252,9.545333 6.963187,6.150397 
	C5.725307,4.961923 5.028902,3.209465 4.042615,1.357276 
	C8.024545,1.000000 12.049088,1.000000 16.536816,1.000000 
z"/>
<path fill="#525C8F" opacity="1.000000" stroke="none" 
	d="
M93.994827,3.995461 
	C93.996269,4.163575 93.997719,4.331690 94.001717,4.752028 
	C95.981346,8.149219 98.309723,11.132594 99.848999,14.478951 
	C101.898163,18.933779 103.333046,23.671169 104.657272,28.732088 
	C100.180618,30.449797 96.078491,31.722595 91.976372,32.995392 
	C94.271446,31.118986 96.566528,29.242582 99.243095,27.054281 
	C92.233597,19.485846 81.296646,14.206704 80.041351,1.385534 
	C83.361290,1.000000 86.722572,1.000000 90.640816,1.306946 
	C92.130119,2.407748 93.062477,3.201605 93.994827,3.995461 
z"/>
<path fill="#6D7FA9" opacity="1.000000" stroke="none" 
	d="
M94.003723,117.002037 
	C96.361168,114.393219 98.618568,111.684433 101.100929,109.200447 
	C104.333237,105.966019 108.406273,107.013542 110.208160,111.225456 
	C111.446693,114.120522 113.189079,116.804642 114.364326,119.720848 
	C115.465393,122.452980 116.116646,125.366394 116.982925,128.600006 
	C111.645073,129.000000 106.290138,129.000000 100.461823,128.595383 
	C100.225754,124.270470 98.492813,122.165092 94.511185,121.510826 
	C92.909409,121.247612 91.485291,119.903259 90.250275,118.869003 
	C91.681396,118.125381 92.842560,117.563705 94.003723,117.002037 
z"/>
<path fill="#666D99" opacity="1.000000" stroke="none" 
	d="
M51.003540,27.005180 
	C44.697628,18.575504 38.391716,10.145829 32.042900,1.358077 
	C36.024544,1.000000 40.049088,1.000000 44.621521,1.341714 
	C49.544724,7.756194 53.581413,13.989784 54.678528,21.627592 
	C54.698872,21.769238 54.871895,21.888950 54.924530,22.349983 
	C53.584766,24.122438 52.294151,25.563808 51.003540,27.005180 
z"/>
<path fill="#516294" opacity="1.000000" stroke="none" 
	d="
M129.000000,53.536816 
	C124.876198,51.707634 120.550186,49.706272 116.694969,47.027378 
	C113.804665,45.018974 112.193138,45.140247 110.346992,48.136868 
	C109.078743,50.195450 107.211876,51.885235 105.175064,53.480415 
	C104.011902,51.666435 103.286270,50.111908 102.863426,48.922569 
	C102.920685,49.487083 102.675140,49.686409 102.969254,49.610214 
	C104.011688,47.902687 104.514465,46.470676 105.017242,45.038666 
	C106.834747,42.431568 109.305267,40.054955 110.324860,37.166225 
	C112.089317,32.167126 114.233330,33.892406 117.267525,35.692421 
	C120.740555,37.752773 124.556320,39.235386 128.611588,40.984505 
	C129.000000,45.024544 129.000000,49.049088 129.000000,53.536816 
z"/>
<path fill="#5B6E9E" opacity="1.000000" stroke="none" 
	d="
M118.033569,69.991081 
	C121.159622,67.988449 124.045486,65.202881 128.644806,66.922379 
	C129.000000,73.687645 129.000000,80.375290 129.000000,87.531464 
	C126.204216,86.173340 123.459175,84.261963 120.596169,82.547554 
	C118.410774,81.238907 116.075966,80.179749 113.500336,78.679138 
	C114.797325,76.508751 116.401596,74.668831 118.144958,72.613129 
	C118.186417,71.873093 118.088768,71.348824 117.999962,70.616104 
	C118.008804,70.407639 118.033569,69.991081 118.033569,69.991081 
z"/>
<path fill="#606894" opacity="1.000000" stroke="none" 
	d="
M54.973682,22.018898 
	C54.871895,21.888950 54.698872,21.769238 54.678528,21.627592 
	C53.581413,13.989784 49.544724,7.756194 45.084709,1.341714 
	C51.021152,1.000000 57.042305,1.000000 63.462597,1.351934 
	C62.732567,4.407626 61.644497,7.129469 60.464657,9.810932 
	C58.667702,13.894938 56.807198,17.950981 54.973682,22.018898 
z"/>
<path fill="#415288" opacity="1.000000" stroke="none" 
	d="
M129.000000,17.529547 
	C121.148926,15.060793 116.417213,9.094748 113.085533,1.343603 
	C118.260979,1.000000 123.521965,1.000000 129.000000,1.000000 
	C129.000000,6.351708 129.000000,11.705401 129.000000,17.529547 
z"/>
<path fill="#7184AB" opacity="1.000000" stroke="none" 
	d="
M89.980316,119.050949 
	C91.485291,119.903259 92.909409,121.247612 94.511185,121.510826 
	C98.492813,122.165092 100.225754,124.270470 99.994217,128.595383 
	C99.250000,129.000000 98.500000,129.000000 97.361557,128.697205 
	C96.685165,127.674858 96.397224,126.955315 95.636040,125.053207 
	C95.283806,127.238945 95.141899,128.119476 95.000000,129.000000 
	C87.979050,129.000000 80.958107,129.000000 73.460907,128.742401 
	C72.984268,128.313019 72.983887,128.141205 73.269943,127.797516 
	C75.706337,125.419479 77.856285,123.213326 80.398613,120.963745 
	C83.854103,120.297188 86.917213,119.674065 89.980316,119.050949 
z"/>
<path fill="#626889" opacity="1.000000" stroke="none" 
	d="
M54.924530,22.349985 
	C56.807198,17.950981 58.667702,13.894938 60.464657,9.810932 
	C61.644497,7.129469 62.732567,4.407626 63.930870,1.351934 
	C65.066673,1.000000 66.133339,1.000000 67.600006,1.000000 
	C67.993217,2.062587 67.986435,3.125175 67.803375,4.853074 
	C67.374039,6.103172 67.120964,6.687957 66.658142,7.054951 
	C66.197159,6.252529 65.945923,5.667898 65.606125,4.877194 
	C63.384090,10.882509 61.608360,16.862032 59.013012,22.461668 
	C52.699360,36.083794 45.966251,38.604523 32.197144,33.220490 
	C36.542107,33.114811 40.519497,33.432716 44.340469,32.802406 
	C46.058277,32.519032 47.463551,30.341080 49.010639,29.022797 
	C49.594437,28.528950 50.178238,28.035103 50.882790,27.273216 
	C52.294151,25.563808 53.584766,24.122438 54.924530,22.349985 
z"/>
<path fill="#7584A3" opacity="1.000000" stroke="none" 
	d="
M57.463184,129.000000 
	C55.072868,126.877884 53.145737,124.755775 51.489265,122.355385 
	C53.875679,122.674980 55.991432,123.272850 58.084320,123.892387 
	C58.061459,123.914055 58.053101,123.851860 58.213181,124.157623 
	C58.863850,124.942932 59.354435,125.422485 60.200752,125.885757 
	C61.094048,124.242630 61.631607,122.615776 62.327660,121.298355 
	C63.337418,124.988518 65.938660,125.140732 68.799301,125.329803 
	C68.917358,125.917442 68.945175,126.156120 69.139626,126.624008 
	C69.537506,127.568817 69.768753,128.284409 70.000000,129.000000 
	C65.975456,129.000000 61.950912,129.000000 57.463184,129.000000 
z"/>
<path fill="#6E7C95" opacity="1.000000" stroke="none" 
	d="
M70.375000,129.000000 
	C69.768753,128.284409 69.537506,127.568817 69.469810,126.557274 
	C70.711700,125.471504 71.790031,124.681671 72.892685,124.299614 
	C72.939178,125.794724 72.961342,126.882065 72.983505,127.969406 
	C72.983887,128.141205 72.984268,128.313019 72.992325,128.742401 
	C72.250000,129.000000 71.500000,129.000000 70.375000,129.000000 
z"/>
<path fill="#6D7FA9" opacity="1.000000" stroke="none" 
	d="
M95.333328,129.000000 
	C95.141899,128.119476 95.283806,127.238945 95.636040,125.053207 
	C96.397224,126.955315 96.685165,127.674858 96.986557,128.697205 
	C96.555557,129.000000 96.111107,129.000000 95.333328,129.000000 
z"/>
<path fill="#4C5C8F" opacity="1.000000" stroke="none" 
	d="
M93.996117,3.621095 
	C93.062477,3.201605 92.130119,2.407748 91.098885,1.306946 
	C91.750000,1.000000 92.500000,1.000000 93.625000,1.000000 
	C93.999130,1.748909 93.998268,2.497819 93.996117,3.621095 
z"/>
<path fill="#F8FAFB" opacity="1.000000" stroke="none" 
	d="
M31.765814,33.257580 
	C45.966251,38.604523 52.699360,36.083794 59.013012,22.461668 
	C61.608360,16.862032 63.384090,10.882509 65.606125,4.877194 
	C65.945923,5.667898 66.197159,6.252529 66.666885,7.438703 
	C69.121506,16.462902 71.600746,24.770506 78.039978,31.579990 
	C83.296669,37.445038 89.515610,36.147606 95.696808,34.631359 
	C99.286026,33.750931 102.804573,32.582413 106.080681,31.623781 
	C104.790749,38.075764 103.610176,43.980751 102.429604,49.885735 
	C102.675140,49.686409 102.920685,49.487083 102.694649,49.195438 
	C101.365860,62.018112 105.249840,67.368538 117.991119,70.824562 
	C118.088768,71.348824 118.186417,71.873093 117.758331,72.629227 
	C103.171082,76.812080 96.962219,84.550911 96.983635,98.428833 
	C96.981697,100.903732 97.062248,102.946724 97.142799,104.989723 
	C97.083084,105.436577 97.023369,105.883423 96.702263,106.605820 
	C95.933525,106.445488 95.426170,106.009613 94.755814,105.258667 
	C90.732170,100.632950 86.871536,96.322304 83.010254,91.662704 
	C84.929199,89.054214 86.848793,86.794670 88.918610,84.371361 
	C89.249817,83.963074 89.360359,83.690018 89.598244,83.205475 
	C89.855644,82.681152 89.915245,82.339790 90.149361,81.702179 
	C91.733284,78.771271 93.142685,76.136620 94.857254,73.375610 
	C96.004471,72.800919 96.846527,72.352592 96.684830,72.438675 
	C94.169426,63.639591 88.761795,56.178299 90.325241,46.942463 
	C88.150475,46.847374 85.426895,47.447124 83.433777,46.503681 
	C77.895668,43.882214 72.684471,40.576149 67.281189,37.657040 
	C66.492966,37.231213 65.146782,37.040627 64.423172,37.425785 
	C60.531219,39.497391 56.754444,41.785385 52.708252,44.264000 
	C48.535049,45.757454 44.591511,46.985588 41.371422,47.988422 
	C40.674042,50.949917 39.906879,54.275883 39.103214,57.593006 
	C38.676090,59.355934 38.185699,61.103531 37.770149,62.868420 
	C37.816429,62.878788 37.836109,62.785999 37.613213,62.914436 
	C37.580185,63.404339 37.770054,63.765800 37.976540,64.508652 
	C37.205566,67.133156 36.417976,69.376274 35.165981,72.942055 
	C39.029133,78.285126 43.627262,84.644737 48.079094,91.315269 
	C43.288315,96.787262 38.643837,101.948326 33.999359,107.109398 
	C33.988167,106.913834 33.976974,106.718262 33.973244,105.789116 
	C33.901428,101.392067 33.822159,97.728600 33.756531,93.693665 
	C32.523502,91.186104 31.276827,89.050018 30.035492,86.544510 
	C27.669542,83.014572 25.830122,79.131927 22.783655,76.888107 
	C19.458368,74.438927 15.015225,73.507477 11.059355,71.914452 
	C11.854815,70.983917 12.650274,70.053391 13.731050,69.000496 
	C15.125297,68.577431 16.234228,68.276733 18.037422,67.980446 
	C19.875998,67.356918 21.020311,66.728973 22.164625,66.101036 
	C22.164625,66.101036 22.083691,65.998260 22.320095,65.971619 
	C22.757301,65.623451 22.958103,65.301918 23.158907,64.980392 
	C23.158907,64.980392 23.023579,65.091637 23.437870,65.103668 
	C27.703562,62.454178 29.429398,58.477345 28.864624,54.146614 
	C28.025614,47.713020 26.337824,41.390114 25.003139,34.681526 
	C24.803951,33.347713 24.612915,32.352474 24.381613,31.147469 
	C25.872358,31.480894 26.944244,31.720638 28.230438,32.118130 
	C28.775112,32.397488 29.105476,32.519096 29.604626,32.611336 
	C29.773413,32.581966 29.715460,32.244255 29.891445,32.545593 
	C30.735159,32.984043 31.402887,33.121151 31.994577,33.184647 
	C31.918541,33.111038 31.765814,33.257580 31.765814,33.257580 
z"/>
<path fill="#F4F7F9" opacity="1.000000" stroke="none" 
	d="
M37.023357,112.631218 
	C37.027382,111.359619 37.031406,110.088013 37.384727,108.295792 
	C41.709435,103.606064 45.617893,99.369095 49.716595,95.324928 
	C50.539635,94.512833 52.085941,94.433739 53.165230,94.393280 
	C52.497585,96.841187 52.090736,98.955818 51.403042,100.974792 
	C49.950684,105.238716 48.351467,109.452621 46.479309,113.805138 
	C44.342323,114.935539 42.538528,115.947853 40.734734,116.960167 
	C41.210724,116.377022 41.686718,115.793884 42.162708,115.210739 
	C40.449593,114.350899 38.736477,113.491058 37.023357,112.631218 
z"/>
<path fill="#717992" opacity="1.000000" stroke="none" 
	d="
M53.298775,94.016678 
	C52.085941,94.433739 50.539635,94.512833 49.716595,95.324928 
	C45.617893,99.369095 41.709435,103.606064 37.432384,107.914444 
	C36.350025,108.036011 35.569302,108.018326 34.393566,108.000618 
	C33.998558,108.000603 33.986862,107.991158 33.986862,107.991158 
	C33.986862,107.991158 34.027100,107.550560 34.013229,107.329979 
	C38.643837,101.948326 43.288315,96.787262 48.385307,91.338257 
	C50.535309,90.707481 52.232788,90.364632 53.934868,90.419716 
	C53.919113,91.881088 53.898762,92.944542 53.733574,94.015305 
	C53.588745,94.022629 53.298775,94.016678 53.298775,94.016678 
z"/>
<path fill="#747E98" opacity="1.000000" stroke="none" 
	d="
M11.161364,72.238548 
	C15.015225,73.507477 19.458368,74.438927 22.783655,76.888107 
	C25.830122,79.131927 27.669542,83.014572 30.025768,86.812965 
	C30.004221,87.629799 29.997732,87.808769 29.991241,87.987732 
	C27.395943,85.806992 24.825068,83.596161 22.193600,81.459969 
	C21.106297,80.577309 19.889011,79.854774 18.366833,79.036545 
	C15.756340,76.863342 13.509856,74.712990 11.161364,72.238548 
z"/>
<path fill="#707D9B" opacity="1.000000" stroke="none" 
	d="
M29.856983,88.345505 
	C29.997732,87.808769 30.004221,87.629799 30.020432,87.182381 
	C31.276827,89.050018 32.523502,91.186104 33.615280,94.065521 
	C33.297272,98.218140 33.134159,101.627434 32.971046,105.036728 
	C31.999783,103.299202 30.446737,101.645920 30.180338,99.806320 
	C29.652254,96.159691 29.834234,92.410225 29.856983,88.345505 
z"/>
<path fill="#728198" opacity="1.000000" stroke="none" 
	d="
M37.175980,112.978378 
	C38.736477,113.491058 40.449593,114.350899 42.162708,115.210739 
	C41.686718,115.793884 41.210724,116.377022 40.734734,116.960167 
	C42.538528,115.947853 44.342323,114.935539 46.775467,114.027939 
	C48.591999,114.416092 49.779186,114.699539 51.030273,115.315079 
	C51.054646,116.096008 51.015118,116.544853 50.657410,117.037773 
	C49.555973,117.401550 48.772713,117.721237 47.989456,118.040932 
	C46.685932,118.047615 45.324146,117.810448 44.089500,118.105423 
	C39.924168,119.100609 38.001396,117.152428 37.175980,112.978378 
z"/>
<path fill="#728198" opacity="1.000000" stroke="none" 
	d="
M58.107185,123.870720 
	C55.991432,123.272850 53.875679,122.674980 51.396473,122.024429 
	C51.002811,121.544464 50.972599,121.117188 50.967438,119.969864 
	C51.045799,118.717911 51.099113,118.186005 51.449844,117.816139 
	C53.867241,119.942360 55.987213,121.906540 58.107185,123.870720 
z"/>
<path fill="#717992" opacity="1.000000" stroke="none" 
	d="
M33.100410,105.198608 
	C33.134159,101.627434 33.297272,98.218140 33.601639,94.436981 
	C33.822159,97.728600 33.901428,101.392067 33.893093,105.506424 
	C33.603188,105.768394 33.411285,105.569458 33.100410,105.198608 
z"/>
<path fill="#7584A3" opacity="1.000000" stroke="none" 
	d="
M51.152428,117.654099 
	C51.099113,118.186005 51.045799,118.717911 50.946747,119.649033 
	C50.029305,119.560966 49.157608,119.073685 48.137680,118.313667 
	C48.772713,117.721237 49.555973,117.401550 50.747131,117.190720 
	C51.155033,117.299583 51.152424,117.654099 51.152428,117.654099 
z"/>
<path fill="#717992" opacity="1.000000" stroke="none" 
	d="
M34.003170,108.006485 
	C34.007782,108.012375 33.951881,108.040207 33.969372,108.015686 
	C33.986862,107.991158 33.998558,108.000603 34.003170,108.006485 
z"/>
<path fill="#627090" opacity="1.000000" stroke="none" 
	d="
M97.066124,97.996933 
	C96.962219,84.550911 103.171082,76.812080 117.619232,72.845001 
	C116.401596,74.668831 114.797325,76.508751 113.090637,78.677834 
	C107.435188,82.001083 100.849159,84.059288 101.002983,92.634491 
	C100.682747,94.126915 100.368576,95.214050 99.753403,96.772484 
	C98.656982,97.494835 97.861549,97.745888 97.066124,97.996933 
z"/>
<path fill="#6E7994" opacity="1.000000" stroke="none" 
	d="
M94.918816,105.573738 
	C95.426170,106.009613 95.933525,106.445488 96.683319,106.943817 
	C93.487038,108.914230 94.401291,112.331635 93.649277,115.655800 
	C92.509941,115.999977 91.767967,115.997391 90.974648,115.585167 
	C90.862320,112.149048 90.801353,109.122566 91.265121,106.055786 
	C92.832840,105.868233 93.875824,105.720985 94.918816,105.573738 
z"/>
<path fill="#6F7E9E" opacity="1.000000" stroke="none" 
	d="
M91.026001,115.994812 
	C91.767967,115.997391 92.509941,115.999977 93.622711,116.002960 
	C93.993515,116.003357 93.998863,116.502670 94.001297,116.752350 
	C92.842560,117.563705 91.681396,118.125381 90.250275,118.868996 
	C86.917213,119.674065 83.854103,120.297188 80.390900,120.955162 
	C79.990791,120.990013 79.975952,120.973770 80.114784,120.665489 
	C81.869904,115.881119 86.237450,118.361328 89.322830,116.860504 
	C90.079666,116.557297 90.552834,116.276054 91.026001,115.994812 
z"/>
<path fill="#627499" opacity="1.000000" stroke="none" 
	d="
M96.983635,98.428833 
	C97.861549,97.745888 98.656982,97.494835 99.741592,97.120461 
	C101.343140,100.186584 101.759254,103.125763 97.489868,104.921585 
	C97.062248,102.946724 96.981697,100.903732 96.983635,98.428833 
z"/>
<path fill="#697296" opacity="1.000000" stroke="none" 
	d="
M28.016132,31.960381 
	C26.944244,31.720638 25.872358,31.480894 24.381613,31.147469 
	C24.612915,32.352474 24.803951,33.347713 24.834881,34.983398 
	C25.105558,39.428989 25.536341,43.234135 25.967125,47.039280 
	C21.703531,42.011349 19.988667,31.970755 22.826588,27.297560 
	C25.440908,27.586437 27.872072,28.156694 30.649395,28.864178 
	C36.705822,32.821854 42.481773,31.001356 48.634056,29.112602 
	C47.463551,30.341080 46.058277,32.519032 44.340469,32.802406 
	C40.519497,33.432716 36.542107,33.114811 32.197144,33.220490 
	C31.765814,33.257580 31.918541,33.111038 31.714279,33.021061 
	C30.911831,32.702141 30.313644,32.473198 29.715460,32.244255 
	C29.715460,32.244255 29.773413,32.581966 29.618202,32.375542 
	C28.980707,32.099537 28.498419,32.029957 28.016132,31.960381 
z"/>
<path fill="#6F778F" opacity="1.000000" stroke="none" 
	d="
M25.882397,47.440590 
	C25.536341,43.234135 25.105558,39.428989 24.843033,35.321972 
	C26.337824,41.390114 28.025614,47.713020 28.864624,54.146614 
	C29.429398,58.477345 27.703562,62.454178 23.493563,65.171280 
	C24.022533,59.431873 24.910103,53.636883 25.882397,47.440590 
z"/>
<path fill="#6F778F" opacity="1.000000" stroke="none" 
	d="
M21.825352,66.102020 
	C21.020311,66.728973 19.875998,67.356918 18.385235,67.920166 
	C19.187883,67.271309 20.336983,66.687149 21.825352,66.102020 
z"/>
<path fill="#6F778F" opacity="1.000000" stroke="none" 
	d="
M22.966652,65.168816 
	C22.958103,65.301918 22.757301,65.623451 22.268688,66.012062 
	C22.245386,65.838509 22.509893,65.597878 22.966652,65.168816 
z"/>
<path fill="#5B6587" opacity="1.000000" stroke="none" 
	d="
M102.969254,49.610214 
	C103.610176,43.980751 104.790749,38.075764 106.080681,31.623781 
	C102.804573,32.582413 99.286026,33.750931 95.696808,34.631359 
	C89.515610,36.147606 83.296669,37.445038 78.077049,31.254084 
	C77.982872,30.409336 78.008690,30.192123 78.034500,29.974913 
	C81.994217,32.787704 86.294678,34.123508 91.569046,32.999420 
	C96.078491,31.722595 100.180618,30.449797 104.628044,29.080194 
	C109.167671,28.186672 108.879654,30.872150 108.239761,33.444210 
	C107.333900,37.085300 106.149094,40.656990 105.050377,44.648502 
	C104.514465,46.470676 104.011688,47.902687 102.969254,49.610214 
z"/>
<path fill="#5D6383" opacity="1.000000" stroke="none" 
	d="
M77.942337,29.627411 
	C78.008690,30.192123 77.982872,30.409336 77.919983,30.952454 
	C71.600746,24.770506 69.121506,16.462902 66.876633,7.656494 
	C67.120964,6.687957 67.374039,6.103172 67.802109,5.251545 
	C71.268120,13.083106 74.559143,21.181509 77.942337,29.627411 
z"/>
<path fill="#5A6585" opacity="1.000000" stroke="none" 
	d="
M117.999954,70.616104 
	C105.249840,67.368538 101.365860,62.018112 102.391853,48.830254 
	C103.286270,50.111908 104.011902,51.666435 104.870552,53.617867 
	C105.054329,62.489113 111.346741,65.976723 117.747177,69.798965 
	C118.033569,69.991081 118.008804,70.407639 117.999954,70.616104 
z"/>
<path fill="#6F7E9E" opacity="1.000000" stroke="none" 
	d="
M73.269943,127.797516 
	C72.961342,126.882065 72.939178,125.794724 72.911957,124.317123 
	C72.906891,123.926857 72.861374,123.914734 73.200302,123.865860 
	C74.172546,123.025604 74.805862,122.234215 75.474075,121.462280 
	C75.508980,121.481735 75.485695,121.405281 75.866043,121.457718 
	C77.489586,121.331352 78.732765,121.152557 79.975952,120.973770 
	C79.975952,120.973770 79.990791,120.990013 79.998505,120.998596 
	C77.856285,123.213326 75.706337,125.419479 73.269943,127.797516 
z"/>
<path fill="#6B7B9B" opacity="1.000000" stroke="none" 
	d="
M68.709076,124.980835 
	C65.938660,125.140732 63.337418,124.988518 62.267277,120.860672 
	C63.490250,111.950752 62.607246,104.207214 58.166931,97.021225 
	C60.723503,98.883270 63.020424,100.876152 65.484497,103.014061 
	C67.600319,99.618004 71.238670,96.803444 69.084549,91.652985 
	C72.345673,86.420235 73.731750,86.599617 78.122772,92.645416 
	C78.041489,92.811600 77.892235,93.150162 77.634254,93.242111 
	C76.918091,93.888016 76.459900,94.441978 75.819122,95.192467 
	C75.374763,95.632423 75.112999,95.875854 74.562393,96.274643 
	C70.752472,100.271645 68.952156,104.713142 69.033798,110.009384 
	C69.110680,114.997017 68.831566,119.990135 68.709076,124.980835 
z"/>
<path fill="#F5F8FB" opacity="1.000000" stroke="none" 
	d="
M57.907288,97.152069 
	C62.607246,104.207214 63.490250,111.950752 62.108780,120.551247 
	C61.631607,122.615776 61.094048,124.242630 60.127296,125.527496 
	C59.149769,124.740952 58.601437,124.296402 58.053101,123.851860 
	C58.053101,123.851860 58.061459,123.914055 58.084320,123.892387 
	C55.987213,121.906540 53.867241,119.942360 51.449844,117.816139 
	C51.152424,117.654099 51.155033,117.299583 51.065311,117.146637 
	C51.015118,116.544853 51.054646,116.096008 51.088005,114.940689 
	C52.745613,108.239868 54.409393,102.245529 56.327267,96.305084 
	C57.023335,96.623344 57.465309,96.887711 57.907288,97.152069 
z"/>
<path fill="#F7F9FB" opacity="1.000000" stroke="none" 
	d="
M68.799301,125.329803 
	C68.831566,119.990135 69.110680,114.997017 69.033798,110.009384 
	C68.952156,104.713142 70.752472,100.271645 74.619293,96.659409 
	C76.616188,102.936882 78.267319,108.984932 79.892708,115.384659 
	C78.406540,117.625977 76.946121,119.515633 75.485695,121.405281 
	C75.485695,121.405281 75.508980,121.481735 75.219208,121.625412 
	C74.240082,122.484299 73.550728,123.199516 72.861374,123.914734 
	C72.861374,123.914734 72.906891,123.926857 72.887627,123.909348 
	C71.790031,124.681671 70.711700,125.471504 69.303177,126.328064 
	C68.945175,126.156120 68.917358,125.917442 68.799301,125.329803 
z"/>
<path fill="#728198" opacity="1.000000" stroke="none" 
	d="
M58.213181,124.157623 
	C58.601437,124.296402 59.149769,124.740952 59.771561,125.543770 
	C59.354435,125.422485 58.863850,124.942932 58.213181,124.157623 
z"/>
<path fill="#6D7A9D" opacity="1.000000" stroke="none" 
	d="
M53.930271,90.021790 
	C52.232788,90.364632 50.535309,90.707481 48.531609,91.027336 
	C43.627262,84.644737 39.029133,78.285126 35.165981,72.942055 
	C36.417976,69.376274 37.205566,67.133156 37.954155,64.172546 
	C37.888802,63.232033 37.862453,63.009018 37.836109,62.785999 
	C37.836109,62.785999 37.816429,62.878788 38.110016,62.764721 
	C39.790287,60.325401 41.500923,58.129715 42.493889,55.646992 
	C44.362621,50.974571 47.563885,48.522190 52.562286,48.539845 
	C54.122929,48.545353 55.682304,48.909904 57.242260,49.110100 
	C56.826328,50.754452 56.410397,52.398804 55.645512,54.126610 
	C54.106716,54.975407 52.916874,55.740749 51.443176,56.570877 
	C51.015114,57.298920 50.539448,58.132446 50.778919,58.598602 
	C52.766319,62.467297 51.424385,65.448471 48.413666,67.977509 
	C46.860817,69.281906 45.171040,70.423294 43.458179,71.701752 
	C44.047455,72.229492 44.530403,72.662018 45.149109,73.392532 
	C47.226727,76.480583 49.168587,79.270638 51.120228,82.480759 
	C51.228592,84.719635 50.981544,86.562057 54.026161,85.926147 
	C55.607521,85.595863 57.422806,86.385590 58.974628,86.982437 
	C57.187984,88.204285 55.559128,89.113037 53.930271,90.021790 
M48.525539,83.494789 
	C48.525539,83.494789 48.489185,83.506271 48.525539,83.494789 
z"/>
<path fill="#626C8A" opacity="1.000000" stroke="none" 
	d="
M52.937912,43.998688 
	C56.754444,41.785385 60.531219,39.497391 64.423172,37.425785 
	C65.146782,37.040627 66.492966,37.231213 67.281189,37.657040 
	C72.684471,40.576149 77.895668,43.882214 83.433777,46.503681 
	C85.426895,47.447124 88.150475,46.847374 90.325241,46.942463 
	C88.761795,56.178299 94.169426,63.639591 96.684830,72.438675 
	C96.846527,72.352592 96.004471,72.800919 94.718765,73.249496 
	C94.275108,73.249748 93.997498,72.998222 93.909271,72.632187 
	C91.397667,65.629822 89.936699,58.374157 86.207016,52.578461 
	C83.786728,48.817463 78.206490,46.818371 73.660728,44.965401 
	C72.907295,44.658283 70.194435,49.158108 68.223862,51.072411 
	C67.208603,48.389271 66.356560,46.070267 65.012558,42.412285 
	C64.357559,45.172310 64.016373,46.609966 63.413620,47.784309 
	C61.905067,44.865669 60.544838,42.564842 56.874638,43.820099 
	C55.681587,44.228138 54.256741,43.958416 52.937912,43.998688 
z"/>
<path fill="#646F93" opacity="1.000000" stroke="none" 
	d="
M52.708252,44.264000 
	C54.256741,43.958416 55.681587,44.228138 56.874638,43.820099 
	C60.544838,42.564842 61.905067,44.865669 63.383133,48.066891 
	C63.474857,48.741169 63.335491,48.869560 62.873928,49.176991 
	C62.205517,50.972374 61.859295,52.588726 61.658089,54.321579 
	C61.803097,54.438087 61.644199,54.774483 61.303596,54.712296 
	C59.306812,54.447788 57.650639,54.245472 55.994461,54.043159 
	C56.410397,52.398804 56.826328,50.754452 57.242260,49.110100 
	C55.682304,48.909904 54.122929,48.545353 52.562286,48.539845 
	C47.563885,48.522190 44.362621,50.974571 42.493889,55.646992 
	C41.500923,58.129715 39.790287,60.325401 38.063736,62.754353 
	C38.185699,61.103531 38.676090,59.355934 39.103214,57.593006 
	C39.906879,54.275883 40.674042,50.949917 41.371422,47.988422 
	C44.591511,46.985588 48.535049,45.757454 52.708252,44.264000 
M58.475903,46.505112 
	C58.475903,46.505112 58.513817,46.492493 58.475903,46.505112 
z"/>
<path fill="#6C7893" opacity="1.000000" stroke="none" 
	d="
M78.204063,92.479233 
	C73.731750,86.599617 72.345673,86.420235 68.715652,91.647034 
	C67.763374,91.966171 67.271561,91.949142 66.843307,91.562149 
	C69.285049,84.823608 70.507126,84.208679 77.178596,85.856392 
	C78.109451,86.086296 79.117088,86.005379 80.316238,86.265060 
	C84.279907,89.389702 85.311707,84.236404 88.173782,84.117996 
	C88.367516,84.263306 88.768387,84.535126 88.768387,84.535126 
	C86.848793,86.794670 84.929199,89.054214 82.733887,91.819839 
	C81.040131,92.377022 79.622101,92.428123 78.204063,92.479233 
z"/>
<path fill="#687389" opacity="1.000000" stroke="none" 
	d="
M78.122772,92.645416 
	C79.622101,92.428123 81.040131,92.377022 82.734535,92.168793 
	C86.871536,96.322304 90.732170,100.632950 94.755814,105.258667 
	C93.875824,105.720985 92.832840,105.868233 90.988129,105.884918 
	C86.114525,101.746643 82.042633,97.738937 77.960617,93.584747 
	C77.950478,93.438278 77.892235,93.150162 77.892235,93.150162 
	C77.892235,93.150162 78.041489,92.811600 78.122772,92.645416 
z"/>
<path fill="#626C8A" opacity="1.000000" stroke="none" 
	d="
M94.413597,73.375854 
	C93.142685,76.136620 91.733284,78.771271 89.903625,81.720375 
	C89.483376,82.034828 88.992004,82.073082 88.995804,81.666245 
	C89.333038,79.176399 89.666473,77.093391 90.297928,74.892776 
	C91.729790,74.182854 92.863640,73.590538 93.997498,72.998222 
	C93.997498,72.998222 94.275108,73.249748 94.413597,73.375854 
z"/>
<path fill="#626889" opacity="1.000000" stroke="none" 
	d="
M28.230438,32.118130 
	C28.498419,32.029957 28.980707,32.099537 29.449417,32.404911 
	C29.105476,32.519096 28.775112,32.397488 28.230438,32.118130 
z"/>
<path fill="#626889" opacity="1.000000" stroke="none" 
	d="
M29.891445,32.545593 
	C30.313644,32.473198 30.911831,32.702141 31.790314,33.094673 
	C31.402887,33.121151 30.735159,32.984043 29.891445,32.545593 
z"/>
<path fill="#646F93" opacity="1.000000" stroke="none" 
	d="
M37.613213,62.914436 
	C37.862453,63.009018 37.888802,63.232033 37.937538,63.791161 
	C37.770054,63.765800 37.580185,63.404339 37.613213,62.914436 
z"/>
<path fill="#6C7893" opacity="1.000000" stroke="none" 
	d="
M88.992004,82.073082 
	C88.992004,82.073082 89.483376,82.034828 89.729111,82.016632 
	C89.915245,82.339790 89.855644,82.681152 89.489861,83.103012 
	C89.183678,83.183510 88.966385,82.979156 88.973656,82.752724 
	C88.980927,82.526291 88.992004,82.073082 88.992004,82.073082 
z"/>
<path fill="#6C7893" opacity="1.000000" stroke="none" 
	d="
M89.292061,83.285973 
	C89.360359,83.690018 89.249817,83.963074 88.918610,84.371361 
	C88.768387,84.535126 88.367516,84.263306 88.331635,83.945938 
	C88.510887,83.403435 88.734436,83.186958 88.966385,82.979156 
	C88.966385,82.979156 89.183678,83.183510 89.292061,83.285973 
z"/>
<path fill="#6B748A" opacity="1.000000" stroke="none" 
	d="
M56.073177,96.251183 
	C54.409393,102.245529 52.745613,108.239868 51.024101,114.608597 
	C49.779186,114.699539 48.591999,114.416092 47.108658,113.909851 
	C48.351467,109.452621 49.950684,105.238716 51.403042,100.974792 
	C52.090736,98.955818 52.497585,96.841187 53.165230,94.393280 
	C53.298775,94.016678 53.588745,94.022629 54.014473,94.021652 
	C54.626457,94.019920 54.812714,94.019157 55.155788,94.189682 
	C55.528217,94.583519 55.753281,94.796074 56.003166,95.312164 
	C56.036751,95.834198 56.054962,96.042686 56.073177,96.251183 
z"/>
<path fill="#7081A3" opacity="1.000000" stroke="none" 
	d="
M54.998974,94.018394 
	C54.812714,94.019157 54.626457,94.019920 54.159302,94.014336 
	C53.898762,92.944542 53.919113,91.881088 53.934868,90.419716 
	C55.559128,89.113037 57.187984,88.204285 59.282799,87.153198 
	C61.545506,89.216759 63.342258,91.422653 65.187668,93.823715 
	C65.511444,94.242531 65.786568,94.466179 66.061684,94.689827 
	C65.947563,94.402565 65.833435,94.115303 65.775887,93.553383 
	C66.148232,92.829849 66.463989,92.380981 66.779755,91.932106 
	C67.271561,91.949142 67.763374,91.966171 68.624084,91.989166 
	C71.238670,96.803444 67.600319,99.618004 65.484497,103.014061 
	C63.020424,100.876152 60.723503,98.883270 58.166931,97.021225 
	C57.465309,96.887711 57.023335,96.623344 56.327267,96.305084 
	C56.054962,96.042686 56.036751,95.834198 55.852325,95.135170 
	C55.473946,94.417358 55.244896,94.208618 54.998974,94.018394 
z"/>
<path fill="#F6F8FB" opacity="1.000000" stroke="none" 
	d="
M77.970749,93.731224 
	C82.042633,97.738937 86.114525,101.746643 90.463394,105.925217 
	C90.801353,109.122566 90.862320,112.149048 90.974648,115.585175 
	C90.552834,116.276054 90.079666,116.557297 89.117317,116.599861 
	C86.811516,115.554298 84.994888,114.747421 82.992447,113.619751 
	C80.999931,107.215096 79.193230,101.131233 77.533005,94.718521 
	C77.776573,94.170189 77.873665,93.950706 77.970749,93.731224 
z"/>
<path fill="#6E7C95" opacity="1.000000" stroke="none" 
	d="
M83.178261,113.940544 
	C84.994888,114.747421 86.811516,115.554298 88.833649,116.621819 
	C86.237450,118.361328 81.869904,115.881119 80.114784,120.665489 
	C78.732765,121.152557 77.489586,121.331352 75.866043,121.457718 
	C76.946121,119.515633 78.406540,117.625977 80.211426,115.254028 
	C81.430008,114.494675 82.304131,114.217613 83.178261,113.940544 
z"/>
<path fill="#6E7C95" opacity="1.000000" stroke="none" 
	d="
M73.200302,123.865860 
	C73.550728,123.199516 74.240082,122.484299 75.184311,121.605957 
	C74.805862,122.234215 74.172546,123.025604 73.200302,123.865860 
z"/>
<path fill="#677286" opacity="1.000000" stroke="none" 
	d="
M82.992447,113.619751 
	C82.304131,114.217613 81.430008,114.494675 80.237167,114.902359 
	C78.267319,108.984932 76.616188,102.936882 74.908142,96.504059 
	C75.112999,95.875854 75.374763,95.632423 76.049797,95.204056 
	C76.770393,95.044762 77.078209,95.054184 77.386520,95.047379 
	C79.193230,101.131233 80.999931,107.215096 82.992447,113.619751 
z"/>
<path fill="#6C7893" opacity="1.000000" stroke="none" 
	d="
M77.533005,94.718521 
	C77.078209,95.054184 76.770393,95.044762 76.232391,95.007530 
	C76.459900,94.441978 76.918091,93.888016 77.634254,93.242111 
	C77.892235,93.150162 77.950478,93.438278 77.960617,93.584747 
	C77.873665,93.950706 77.776573,94.170189 77.533005,94.718521 
z"/>
<path fill="#F8F9FB" opacity="1.000000" stroke="none" 
	d="
M66.843307,91.562149 
	C66.463989,92.380981 66.148232,92.829849 65.635490,93.490021 
	C65.438515,93.701309 65.139008,93.628548 65.139008,93.628548 
	C63.342258,91.422653 61.545506,89.216759 59.440582,86.840111 
	C57.422806,86.385590 55.607521,85.595863 54.026161,85.926147 
	C50.981544,86.562057 51.228592,84.719635 51.434719,82.261513 
	C52.941086,76.063499 49.759819,73.961754 45.013351,73.094536 
	C44.530403,72.662018 44.047455,72.229492 43.458179,71.701752 
	C45.171040,70.423294 46.860817,69.281906 48.413666,67.977509 
	C51.424385,65.448471 52.766319,62.467297 50.778919,58.598602 
	C50.539448,58.132446 51.015114,57.298920 51.762543,56.759270 
	C55.900169,58.123425 59.611534,60.142704 61.644199,54.774483 
	C61.644199,54.774483 61.803097,54.438087 61.892330,54.065269 
	C62.386417,52.127621 62.791271,50.562790 63.196121,48.997955 
	C63.335491,48.869560 63.474857,48.741169 63.644711,48.330200 
	C64.016373,46.609966 64.357559,45.172310 65.012558,42.412285 
	C66.356560,46.070267 67.208603,48.389271 68.184097,51.168736 
	C68.307556,51.629192 68.618713,51.683197 68.653183,52.083927 
	C69.132019,53.354229 69.576401,54.223804 70.320831,55.328487 
	C73.226776,56.039711 75.841492,56.473606 78.433571,57.015747 
	C79.294586,57.195831 80.097466,57.653919 80.675102,58.256332 
	C77.470573,66.453491 78.488922,68.143456 87.847870,71.347176 
	C86.717567,72.191116 85.706741,72.751808 84.646622,73.194458 
	C78.785721,75.641640 77.569939,78.767410 80.052902,85.259415 
	C80.036362,85.708588 80.062775,85.888458 80.089180,86.068336 
	C79.117088,86.005379 78.109451,86.086296 77.178596,85.856392 
	C70.507126,84.208679 69.285049,84.823608 66.843307,91.562149 
z"/>
<path fill="#666D88" opacity="1.000000" stroke="none" 
	d="
M61.303596,54.712296 
	C59.611534,60.142704 55.900169,58.123425 52.046394,56.694481 
	C52.916874,55.740749 54.106716,54.975407 55.645512,54.126610 
	C57.650639,54.245472 59.306812,54.447788 61.303596,54.712296 
z"/>
<path fill="#6C758F" opacity="1.000000" stroke="none" 
	d="
M45.149109,73.392532 
	C49.759819,73.961754 52.941086,76.063499 51.424934,81.841461 
	C49.168587,79.270638 47.226727,76.480583 45.149109,73.392532 
z"/>
<path fill="#6C758F" opacity="1.000000" stroke="none" 
	d="
M48.507362,83.500534 
	C48.489185,83.506271 48.525539,83.494789 48.507362,83.500534 
z"/>
<path fill="#616E96" opacity="1.000000" stroke="none" 
	d="
M80.926918,57.984917 
	C80.097466,57.653919 79.294586,57.195831 78.433571,57.015747 
	C75.841492,56.473606 73.226776,56.039711 70.262573,54.964531 
	C69.475746,53.471375 69.047234,52.577286 68.618713,51.683197 
	C68.618713,51.683197 68.307556,51.629192 68.347313,51.532867 
	C70.194435,49.158108 72.907295,44.658283 73.660728,44.965401 
	C78.206490,46.818371 83.786728,48.817463 86.207016,52.578461 
	C89.936699,58.374157 91.397667,65.629822 93.909271,72.632187 
	C92.863640,73.590538 91.729790,74.182854 89.953773,74.974747 
	C87.692520,76.480003 85.896355,77.622139 84.500328,79.133804 
	C82.851578,80.919121 81.548683,83.023849 80.095863,84.990112 
	C77.569939,78.767410 78.785721,75.641640 84.646622,73.194458 
	C85.706741,72.751808 86.717567,72.191116 87.921616,71.094788 
	C84.299065,68.094643 82.403313,64.619186 82.090256,60.157394 
	C82.037796,59.409706 81.331238,58.707916 80.926918,57.984917 
z"/>
<path fill="#666D88" opacity="1.000000" stroke="none" 
	d="
M62.873928,49.176991 
	C62.791271,50.562790 62.386417,52.127621 61.747322,53.948765 
	C61.859295,52.588726 62.205517,50.972374 62.873928,49.176991 
z"/>
<path fill="#6D7A9D" opacity="1.000000" stroke="none" 
	d="
M58.494858,46.498802 
	C58.513817,46.492493 58.475903,46.505112 58.494858,46.498802 
z"/>
<path fill="#65759C" opacity="1.000000" stroke="none" 
	d="
M80.052902,85.259415 
	C81.548683,83.023849 82.851578,80.919121 84.500328,79.133804 
	C85.896355,77.622139 87.692520,76.480003 89.655762,75.092354 
	C89.666473,77.093391 89.333038,79.176399 88.995804,81.666245 
	C88.992004,82.073082 88.980927,82.526291 88.973656,82.752724 
	C88.734436,83.186958 88.510887,83.403435 88.137909,83.800629 
	C85.311707,84.236404 84.279907,89.389702 80.316238,86.265060 
	C80.062775,85.888458 80.036362,85.708588 80.052902,85.259415 
z"/>
<path fill="#717992" opacity="1.000000" stroke="none" 
	d="
M55.155788,94.189682 
	C55.244896,94.208618 55.473946,94.417358 55.836952,94.821625 
	C55.753281,94.796074 55.528217,94.583519 55.155788,94.189682 
z"/>
<path fill="#6C7893" opacity="1.000000" stroke="none" 
	d="
M65.187668,93.823715 
	C65.139008,93.628548 65.438515,93.701309 65.578911,93.764679 
	C65.833435,94.115303 65.947563,94.402565 66.061684,94.689827 
	C65.786568,94.466179 65.511444,94.242531 65.187668,93.823715 
z"/>
<path fill="#626D8D" opacity="1.000000" stroke="none" 
	d="
M80.675102,58.256332 
	C81.331238,58.707916 82.037796,59.409706 82.090256,60.157394 
	C82.403313,64.619186 84.299065,68.094643 88.018341,70.757034 
	C78.488922,68.143456 77.470573,66.453491 80.675102,58.256332 
z"/>
<path fill="#626C8A" opacity="1.000000" stroke="none" 
	d="
M68.653183,52.083927 
	C69.047234,52.577286 69.475746,53.471375 69.962524,54.729420 
	C69.576401,54.223804 69.132019,53.354229 68.653183,52.083927 
z"/>
</svg>